<svg width="46" height="46" viewBox="0 0 46 46" fill="none" xmlns="http://www.w3.org/2000/svg">
<path d="M0 28.0013C0 25.7687 0.440051 23.558 1.29508 21.4954C2.15012 19.4327 3.40332 17.5586 4.9832 15.9799C6.56308 14.4012 8.43859 13.1489 10.5028 12.2946C12.567 11.4403 14.7794 11.0005 17.0137 11.0005V28.0013H0Z" fill="#00A4F4"/>
<path d="M0 28.0012C0 30.3652 0.440051 32.7059 1.29508 34.8899C2.15012 37.0739 3.40332 39.0582 4.9832 40.7298C6.56308 42.4013 8.43859 43.7272 10.5028 44.6319C12.567 45.5365 14.7794 46.0021 17.0137 46.0021V28.0012H0Z" fill="#2CBEFF"/>
<path d="M34.0274 28.0012C34.0274 30.3652 33.5877 32.7059 32.7327 34.8899C31.8777 37.0739 30.6245 39.0582 29.0443 40.7298C27.4644 42.4013 25.5888 43.7272 23.5245 44.6319C21.4604 45.5365 19.2479 46.0021 17.0137 46.0021V28.0012H34.0274Z" fill="#75D4FF"/>
<path d="M45.0364 13.0006C45.0364 20.1806 39.2111 26.0012 32.0258 26.0012H19.0154V13.0006C19.0154 5.82059 24.8404 0 32.0258 0C39.2111 0 45.0364 5.82059 45.0364 13.0006Z" fill="#004990"/>
</svg>
