<svg width="73" height="73" viewBox="0 0 73 73" fill="none" xmlns="http://www.w3.org/2000/svg">
<rect x="0.167877" y="0.384521" width="72.4833" height="72.4833" rx="36.2416" fill="#E6E9EE"/>
<g clip-path="url(#clip0_1_297)">
<g clip-path="url(#clip1_1_297)">
<g clip-path="url(#clip2_1_297)">
<g clip-path="url(#clip3_1_297)">
<mask id="mask0_1_297" style="mask-type:luminance" maskUnits="userSpaceOnUse" x="19" y="13" width="46" height="47">
<path d="M64.637 13.9778H19.3349V59.2798H64.637V13.9778Z" fill="white"/>
</mask>
<g mask="url(#mask0_1_297)">
<path d="M51.8405 41.3849L49.7246 38.0188C49.5217 37.696 49.5182 37.2864 49.7155 36.9601L50.5064 35.6522C51.6369 33.7829 51.988 31.5317 51.4229 29.4215C49.7157 23.047 43.899 18.353 36.9859 18.353H31.9956C25.3779 18.3531 20.0116 23.7114 19.9986 30.3261C19.9932 33.0896 20.9706 35.7656 22.6929 37.9268L24.8829 40.6749C25.4467 41.3824 25.664 42.3051 25.4751 43.1898L23.0888 54.3695C23.0301 54.6449 23.2399 54.9043 23.5215 54.9043H36.0489C36.2621 54.9043 36.445 54.7521 36.4839 54.5425L37.4699 49.2233L44.8882 50.6508C46.0241 50.9233 47.1687 50.2355 47.4616 49.1048L48.4531 45.2757C48.5322 44.9704 48.7363 44.7127 49.0153 44.5659L51.3106 43.3569C52.0278 42.9793 52.2718 42.0711 51.8405 41.3849Z" fill="#1AB3FA"/>
<path d="M37.4663 49.2416L35.3535 48.835C35.1471 48.7953 34.9479 48.9312 34.9096 49.1378L33.8407 54.9042H36.0488C36.262 54.9042 36.445 54.7521 36.4837 54.5423L37.4663 49.2416Z" fill="#1F5FFF"/>
<path d="M51.8404 41.385L49.7246 38.0188C49.5217 37.6961 49.5182 37.2864 49.7155 36.9602L50.5064 35.6523C51.6522 33.7574 51.9855 31.4739 51.4002 29.3382C49.7906 23.4647 44.6867 19.0365 38.4626 18.4259C43.531 19.8181 47.5227 23.8118 48.9106 28.882C49.495 31.0163 49.1609 33.2984 48.0158 35.192L47.2248 36.5C47.0275 36.8261 47.031 37.2358 47.234 37.5586L49.3498 40.9247C49.7811 41.6109 49.5372 42.5191 48.82 42.8967L46.5247 44.1056C46.2456 44.2526 46.0416 44.5104 45.9625 44.8155L44.9709 48.6446C44.7118 49.6452 43.7854 50.2984 42.7885 50.2467L44.8883 50.6508C46.0241 50.9232 47.1688 50.2355 47.4615 49.1048L48.4532 45.2757C48.5322 44.9704 48.7363 44.7127 49.0153 44.5658L51.3106 43.357C52.0278 42.9793 52.2718 42.0712 51.8404 41.385Z" fill="#1F5FFF"/>
<path d="M31.76 33.4051V37.2672C31.76 38.1962 31.3771 39.0842 30.7014 39.7219L30.2776 40.1218C29.5584 40.8005 29.1508 41.7456 29.1508 42.7345V46.4125H31.76V44.2668C31.76 42.8872 32.5979 41.642 33.8862 41.1075L35.948 40.2521C37.2362 39.7175 38.0742 38.4725 38.0742 37.0928V31.0333L31.76 33.4051Z" fill="#F9DBEB"/>
<path d="M36.8249 33.0384H43.2711C46.2764 33.0384 48.1307 29.6991 45.984 27.9818C46.3179 24.9288 43.478 22.9729 41.8688 23.2114C40.8319 21.3032 37.0156 20.7307 35.4891 21.6371C33.581 20.1106 28.9059 21.3032 27.7611 23.6407C25.7575 24.1177 23.4678 26.6937 24.2787 28.8881C21.8459 30.9394 24.7557 37.6656 29.0491 36.7116C31.6251 37.7611 36.7295 37.7134 36.8249 33.0384Z" fill="white"/>
<path d="M30.9535 37.1967C33.5618 37.5332 36.7496 36.7237 36.8248 33.0383H35.3573C35.0224 33.0383 34.7415 33.2895 34.7014 33.6221C34.4222 35.9339 32.7767 36.9397 30.9535 37.1967Z" fill="#1F5FFF"/>
<path d="M45.984 27.9816C46.318 24.9286 43.4781 22.9727 41.8688 23.2112C40.9285 21.4807 37.7024 20.8489 35.9711 21.4222C37.8088 21.7099 39.8659 22.6606 40.228 23.919C41.8373 23.6805 44.6772 25.6363 44.3433 28.6895C46.49 30.4068 44.4878 33.0382 41.1879 33.0382H43.2713C46.2765 33.0382 48.1307 29.6989 45.984 27.9816Z" fill="#1F5FFF"/>
<path d="M63.9836 33.3161C64.0631 32.5164 63.4793 31.8035 62.6795 31.7239C61.8797 31.6444 61.1669 32.2281 61.0872 33.028C61.0077 33.8278 61.5915 34.5406 62.3913 34.6202C63.1911 34.6997 63.9039 34.116 63.9836 33.3161Z" fill="#1AB3FA"/>
<path d="M56.5243 36.5932C56.6039 35.7935 56.02 35.0806 55.2203 35.001C54.4205 34.9215 53.7076 35.5052 53.628 36.3051C53.5484 37.1049 54.1323 37.8177 54.932 37.8973C55.7318 37.9768 56.4447 37.3931 56.5243 36.5932Z" fill="#1AB3FA"/>
<path d="M59.4375 29.1204C59.517 28.3207 58.9332 27.6078 58.1334 27.5283C57.3337 27.4487 56.6208 28.0325 56.5412 28.8323C56.4616 29.6321 57.0454 30.345 57.8453 30.4245C58.6451 30.5041 59.3579 29.9203 59.4375 29.1204Z" fill="#1AB3FA"/>
<path d="M40.7787 49.184L37.5953 48.5714C37.4217 48.5383 37.2419 48.5752 37.0959 48.6749C36.9498 48.7746 36.8496 48.9283 36.8173 49.1021L35.7643 54.7831C35.6976 55.1435 35.9356 55.4897 36.2959 55.5565C36.3369 55.5641 36.3775 55.5677 36.4176 55.5677C36.7312 55.5677 37.0101 55.3445 37.0694 55.025L38.0005 50.001L40.5278 50.4873C40.8876 50.5561 41.2356 50.3209 41.3049 49.9611C41.374 49.6012 41.1386 49.2534 40.7787 49.184Z" fill="#000D44"/>
<path d="M38.7378 37.0932V33.702H43.271C45.12 33.702 46.812 32.5601 47.3855 30.9252C47.8029 29.7356 47.5342 28.5562 46.6702 27.7047C46.7315 26.261 46.1839 24.9127 45.1073 23.8764C44.2525 23.0538 43.1638 22.5549 42.2181 22.5295C41.6504 21.7649 40.6865 21.169 39.4539 20.8297C38.0316 20.4381 36.5564 20.4619 35.5449 20.8724C34.5295 20.2738 33.0327 20.1263 31.4356 20.4841C29.5868 20.8981 28.0415 21.8774 27.3139 23.0768C26.0029 23.4944 24.6953 24.6036 23.9904 25.9202C23.4852 26.8639 23.3293 27.8148 23.5308 28.6968C22.8774 29.4511 22.611 30.5488 22.7778 31.8411C22.8247 32.2045 23.1575 32.4611 23.5209 32.4143C23.8843 32.3674 24.141 32.0348 24.0941 31.6713C24.0022 30.9591 24.0874 30.3368 24.3278 29.8781C25.5842 30.934 27.4092 31.3346 29.0838 30.6649C29.4241 30.5287 29.5895 30.1425 29.4535 29.8022C29.3174 29.4619 28.9314 29.2963 28.5909 29.4325C27.1499 30.0091 25.6256 29.4228 24.8691 28.5596C24.6313 27.7977 24.8917 27.0492 25.1606 26.5466C25.7282 25.4863 26.8259 24.5747 27.8496 24.3043H28.1201C29.3226 24.3043 30.301 25.2827 30.301 26.4852V26.7479C30.301 28.066 31.3734 29.1385 32.6916 29.1385H33.5711C33.9375 29.1385 34.2346 28.8415 34.2346 28.4749C34.2346 28.1083 33.9375 27.8112 33.5711 27.8112H32.6916C32.1052 27.8112 31.6281 27.3343 31.6281 26.7479V26.4852C31.6281 24.86 30.5173 23.4899 29.0151 23.0932C29.6638 22.5043 30.633 22.0239 31.7257 21.7792C32.9589 21.5031 34.1086 21.5869 34.8256 21.9899V23.6608C34.8256 25.1926 36.0718 26.4388 37.6037 26.4388H39.2554C39.6219 26.4388 39.919 26.1418 39.919 25.7752C39.919 25.4086 39.6219 25.1116 39.2554 25.1116H37.6035C36.8034 25.1116 36.1527 24.4608 36.1527 23.6608V22.0619C36.8827 21.8089 38.0454 21.8186 39.1017 22.1094C40.1576 22.4001 40.9537 22.9173 41.2857 23.5283C41.4187 23.7732 41.6906 23.9093 41.9661 23.8679C42.475 23.7926 43.3866 24.0624 44.1869 24.8327C44.6652 25.2932 45.4311 26.2688 45.3394 27.7282L44.8916 28.2992C44.4098 28.9132 43.6858 29.2655 42.9053 29.2655H42.3412C41.9747 29.2655 41.6775 29.5625 41.6775 29.9291C41.6775 30.2956 41.9747 30.5927 42.3412 30.5927H42.9053C44.0962 30.5927 45.2007 30.0554 45.9357 29.1184L46.023 29.0072C46.3598 29.5662 46.253 30.1442 46.1332 30.4859C45.8141 31.3957 44.7823 32.3749 43.271 32.3749C42.4533 32.3749 37.5529 32.3749 36.8248 32.3749C36.4635 32.3749 36.1688 32.6639 36.1612 33.0249C36.1345 34.3385 35.661 35.307 34.754 35.9035C33.4061 36.79 31.2524 36.7428 29.7127 36.2467V34.4406C29.7127 33.2968 30.6432 32.3664 31.7869 32.3664H33.247C33.6135 32.3664 33.9106 32.0693 33.9106 31.7028C33.9106 31.3362 33.6135 31.0391 33.247 31.0391H31.7869C29.9114 31.0391 28.3854 32.5651 28.3854 34.4406V36.1355C26.7072 36.2268 25.5704 34.9005 25.1344 34.2811C24.9233 33.9814 24.5095 33.9095 24.2098 34.1205C23.9101 34.3315 23.8382 34.7455 24.0492 35.0451C25.3199 36.8499 27.1531 37.7186 28.9881 37.4001C29.6079 37.6311 30.3134 37.7918 31.027 37.8716C30.9075 38.3901 30.6376 38.8696 30.2456 39.2394L29.8219 39.6394C28.9737 40.4395 28.4873 41.5677 28.4873 42.7348V46.4129C28.4873 46.7795 28.7844 47.0765 29.1508 47.0765C29.5173 47.0765 29.8145 46.7795 29.8145 46.4129V42.7348C29.8145 41.9316 30.1491 41.1552 30.7326 40.6047L31.1565 40.2047C31.8014 39.5961 32.2253 38.7882 32.3689 37.9222C34.9877 37.8131 36.9951 36.5003 37.4105 33.9232V37.0933C37.4105 38.2072 36.7365 39.2065 35.6934 39.6391L33.6319 40.4947C32.0917 41.1336 31.0965 42.6145 31.0965 44.2673V46.4129C31.0965 46.7795 31.3936 47.0765 31.7601 47.0765C32.1265 47.0765 32.4237 46.7795 32.4237 46.4129V44.2673C32.4237 43.1529 33.0976 42.1532 34.1407 41.7206L36.2022 40.8651C37.7426 40.2259 38.7378 38.7455 38.7378 37.0932Z" fill="#000D44"/>
<path d="M62.5179 31.0383C61.5813 31.0383 60.7851 31.6493 60.5059 32.4936H60.2073L59.3754 30.5508C59.8147 30.1623 60.0924 29.5951 60.0924 28.9637C60.0924 27.7953 59.1418 26.8448 57.9734 26.8448C56.8051 26.8448 55.8544 27.7953 55.8544 28.9637C55.8544 29.6195 56.1538 30.2065 56.623 30.5955L55.1673 34.3171C55.1326 34.3153 55.0976 34.3144 55.0625 34.3144C54.8675 34.3144 54.6789 34.3414 54.4993 34.391L53.4452 32.7919C53.3223 32.6057 53.1142 32.4936 52.8911 32.4936H52.2847C52.4172 31.4098 52.3468 30.3068 52.0637 29.2496C50.2408 22.4431 44.0407 17.6892 36.9858 17.6892H31.9956C25.0144 17.6892 19.3349 23.3687 19.3349 30.3498C19.3349 33.2052 20.3149 36.0073 22.0944 38.2402L24.3639 41.0882C24.8056 41.6425 24.9741 42.3578 24.8261 43.051L22.3256 54.7654C22.2491 55.1238 22.4776 55.4763 22.8361 55.5529C22.8828 55.5628 22.9294 55.5676 22.9753 55.5676C23.2817 55.5675 23.557 55.3542 23.6237 55.0423L26.1242 43.3278C26.3554 42.2448 26.0922 41.127 25.402 40.261L23.1324 37.413C21.5394 35.4142 20.6621 32.9058 20.6621 30.3498C20.6621 24.1006 25.7462 19.0164 31.9955 19.0164H36.9858C43.4409 19.0164 49.114 23.3656 50.7816 29.593C51.2914 31.4962 50.984 33.5796 49.9384 35.3086L49.1475 36.6164C48.8183 37.1608 48.8243 37.8334 49.1627 38.3716L51.2785 41.7378C51.3877 41.9114 51.4185 42.116 51.3653 42.3141C51.312 42.5121 51.1828 42.6739 51.0013 42.7694L48.7061 43.9784C48.2625 44.2119 47.9363 44.6239 47.8106 45.109L46.819 48.938C46.6183 49.7131 45.8214 50.1914 45.0429 50.0053C45.0332 50.0029 45.0234 50.0007 45.0136 49.9988L43.8234 49.7698C43.4632 49.7003 43.1156 49.9361 43.0464 50.2961C42.9771 50.6559 43.2127 51.0038 43.5726 51.0731L44.749 51.2995C46.2213 51.6435 47.7243 50.7366 48.1039 49.2707L49.0956 45.4416C49.1276 45.3177 49.2111 45.2123 49.3244 45.1526L51.6197 43.9437C52.1245 43.6778 52.4989 43.2093 52.647 42.6584C52.795 42.1074 52.7057 41.5144 52.4021 41.0315L50.2862 37.6652C50.2164 37.5542 50.2152 37.4155 50.2831 37.3031L51.074 35.9953C51.4882 35.3103 51.8034 34.5774 52.0172 33.8208H52.5337L53.3953 35.1278C53.1126 35.4879 52.9433 35.9411 52.9433 36.4335C52.9433 37.6019 53.894 38.5525 55.0623 38.5525C56.2308 38.5525 57.1814 37.6019 57.1814 36.4335C57.1814 35.7743 56.8788 35.1844 56.4052 34.7955L57.8587 31.0796C57.9573 31.0849 58.0454 31.084 58.1556 31.0743L59.1595 33.4184C59.2641 33.6625 59.5041 33.8207 59.7695 33.8207H60.5057C60.7848 34.6651 61.5811 35.2762 62.5178 35.2762C63.6864 35.2762 64.6369 34.3257 64.6369 33.1572C64.6369 31.9887 63.6864 31.0383 62.5179 31.0383ZM55.0625 37.2254C54.6259 37.2254 54.2707 36.8701 54.2707 36.4336C54.2707 35.9989 54.6248 35.6417 55.0625 35.6417C55.4992 35.6417 55.8544 35.997 55.8544 36.4336C55.8544 36.8701 55.4992 37.2254 55.0625 37.2254ZM57.9734 28.172C58.41 28.172 58.7652 28.5273 58.7652 28.9638C58.7652 29.4004 58.4099 29.7557 57.9734 29.7557C57.5369 29.7557 57.1816 29.4004 57.1816 28.9638C57.1816 28.5273 57.5368 28.172 57.9734 28.172ZM62.5179 33.9492C62.0813 33.9492 61.726 33.594 61.726 33.1573C61.726 32.7208 62.0813 32.3655 62.5179 32.3655C62.9546 32.3655 63.3098 32.7208 63.3098 33.1573C63.3098 33.594 62.9545 33.9492 62.5179 33.9492Z" fill="#000D44"/>
</g>
</g>
</g>
</g>
</g>
<defs>
<clipPath id="clip0_1_297">
<rect width="45.302" height="45.302" fill="white" transform="translate(18.983 13.9377)"/>
</clipPath>
<clipPath id="clip1_1_297">
<rect width="45.302" height="45.302" fill="white" transform="translate(19.3349 13.9778)"/>
</clipPath>
<clipPath id="clip2_1_297">
<rect width="45.302" height="45.302" fill="white" transform="translate(19.3349 13.9778)"/>
</clipPath>
<clipPath id="clip3_1_297">
<rect width="45.302" height="45.302" fill="white" transform="translate(19.3349 13.9778)"/>
</clipPath>
</defs>
</svg>
