<svg width="73" height="73" viewBox="0 0 73 73" fill="none" xmlns="http://www.w3.org/2000/svg">
<rect x="0.348663" y="0.384521" width="72.4833" height="72.4833" rx="36.2416" fill="#E6E9EE"/>
<g clip-path="url(#clip0_1_218)">
<g clip-path="url(#clip1_1_218)">
<g clip-path="url(#clip2_1_218)">
<path fill-rule="evenodd" clip-rule="evenodd" d="M35.5138 33.929L40.7047 35.3687L51.2222 38.2856L54.0653 28.08C55.5258 22.8379 52.4213 17.3552 47.1676 15.8979C41.9114 14.4406 36.4188 17.5357 34.9559 22.7803L33.2717 28.8324C33.2716 32.5296 34.2519 33.5805 35.5138 33.929Z" fill="#1AB3FA"/>
<path fill-rule="evenodd" clip-rule="evenodd" d="M49.6008 26.8411L46.7577 37.0467L51.2221 38.2857L54.0651 28.08C55.5256 22.8379 52.4212 17.3552 47.1674 15.8979C46.3983 15.6847 45.6265 15.5694 44.8598 15.5417C48.7662 17.7139 50.8475 22.364 49.6008 26.8411Z" fill="#1F5FFF"/>
<path fill-rule="evenodd" clip-rule="evenodd" d="M51.2221 38.2858L46.7577 37.0468L43.9147 47.2525C43.1531 49.9889 41.2928 52.1408 38.94 53.3648C38.7187 53.9041 38.4572 54.4108 38.1556 54.8873C37.9872 55.1557 37.8062 55.414 37.6126 55.6623C42.3962 56.2468 47.0517 53.2545 48.3789 48.4915L51.2221 38.2858Z" fill="#DDDAEC"/>
<path fill-rule="evenodd" clip-rule="evenodd" d="M27.1428 26.1791C22.5076 26.1791 18.752 29.9288 18.752 34.5538C18.752 37.8169 20.6198 40.6411 23.3496 42.0256C26.4743 43.4151 30.3127 43.3799 33.2312 40.3175C34.659 38.8177 35.5362 36.7861 35.5362 34.5538C35.5362 34.3431 35.5287 34.1349 35.5136 33.9293C35.3678 31.9629 34.5433 30.1871 33.2713 28.8328C31.7406 27.1999 29.5612 26.1791 27.1428 26.1791Z" fill="#1F5FFF"/>
<path fill-rule="evenodd" clip-rule="evenodd" d="M29.7522 49.6027L39.4981 51.5314C40.418 46.9315 37.9521 42.1911 33.4274 40.3927C33.362 40.3677 33.2967 40.3426 33.2313 40.3175C32.2485 39.9512 31.2404 39.7481 30.2424 39.7005C27.7212 39.5751 25.2552 40.4228 23.3498 42.0256C22.5781 42.6702 21.9019 43.4402 21.3489 44.3205L29.7522 49.6027Z" fill="#B1E4F9"/>
<path fill-rule="evenodd" clip-rule="evenodd" d="M38.1556 54.8873L29.7422 50.6911L20.0089 47.6788C19.094 52.2738 21.5599 57.0117 26.0796 58.8076C27.2812 59.284 28.523 59.5123 29.7421 59.5123H29.7596C32.8088 59.5098 35.7298 58.0951 37.6126 55.6622C37.8063 55.414 37.9872 55.1557 38.1556 54.8873Z" fill="#B1E4F9"/>
<path fill-rule="evenodd" clip-rule="evenodd" d="M29.2119 26.4373C31.1349 28.489 33.6033 35.9708 28.797 39.7355C29.2747 39.6877 29.7573 39.6752 30.2424 39.7003C31.2404 39.748 32.2484 39.9511 33.2314 40.3173C34.6592 38.8175 35.5364 36.7859 35.5364 34.5536C35.5364 34.3429 35.5289 34.1347 35.5138 33.9291C35.368 31.9627 34.5435 30.1869 33.2715 28.8326C32.1906 27.6813 30.7904 26.836 29.2119 26.4373Z" fill="#1AB3FA"/>
<path fill-rule="evenodd" clip-rule="evenodd" d="M38.1556 54.8871L33.4675 53.0236C33.3719 53.3421 33.269 53.6506 33.1533 53.9566C32.3012 56.234 30.9212 58.1602 29.2042 59.497C29.3827 59.5071 29.5637 59.5121 29.7422 59.5121H29.7598C32.809 59.5096 35.73 58.095 37.6127 55.662C37.8063 55.4139 37.9872 55.1555 38.1556 54.8871Z" fill="#1AB3FA"/>
<path fill-rule="evenodd" clip-rule="evenodd" d="M34.0884 49.3819L39.498 51.5313C40.418 46.9315 37.9521 42.191 33.4274 40.3927C33.362 40.3676 33.2966 40.3425 33.2313 40.3174C32.5953 40.0792 31.9493 39.9111 31.3033 39.8108C31.6376 40.2522 31.9467 40.7213 32.2282 41.2179C33.4148 43.3072 34.1085 45.8454 34.1085 48.5818C34.1084 48.8501 34.1036 49.116 34.0884 49.3819Z" fill="#1AB3FA"/>
<path fill-rule="evenodd" clip-rule="evenodd" d="M39.498 51.5312L29.0333 47.3727L21.3487 44.3203C21.032 44.8219 20.7555 45.3612 20.5267 45.9331C20.298 46.5099 20.1271 47.0918 20.0089 47.6786L31.1649 52.1105L38.1556 54.8871C38.4749 54.3829 38.7514 53.8412 38.9801 53.2668C39.2089 52.6949 39.3798 52.1131 39.498 51.5312Z" fill="#1AB3FA"/>
<path fill-rule="evenodd" clip-rule="evenodd" d="M33.4676 53.0238L38.1557 54.8875C38.475 54.3832 38.7515 53.8415 38.9802 53.2672C39.2089 52.6953 39.3799 52.1134 39.498 51.5316L34.0884 49.3821C34.0256 50.6536 33.812 51.8777 33.4676 53.0238Z" fill="#1AB3FA"/>
<path d="M53.7165 20.2517C52.3232 17.7855 50.061 16.0125 47.3463 15.2591C47.3457 15.259 47.3452 15.2589 47.3446 15.2587C41.7254 13.7008 35.8807 16.9949 34.3163 22.6026L32.925 27.6024C31.3553 26.2998 29.3392 25.5154 27.1429 25.5154C24.9786 25.5154 22.8825 26.291 21.2409 27.6994C20.9628 27.9381 20.9308 28.357 21.1694 28.6352C21.4081 28.9133 21.8269 28.9453 22.1051 28.7067C23.5063 27.5046 25.2954 26.8426 27.1429 26.8426C31.4051 26.8426 34.8727 30.3018 34.8727 34.5536C34.8727 36.3967 34.2215 38.1531 33.0324 39.5458C29.6143 38.4334 25.979 39.1609 23.2807 41.2325C20.8866 39.8538 19.4158 37.3323 19.4158 34.5536C19.4158 33.3044 19.7062 32.1111 20.2789 31.0066C20.4476 30.6813 20.3207 30.2807 19.9952 30.112C19.6698 29.9433 19.2693 30.0702 19.1006 30.3957C18.429 31.6909 18.0885 33.0898 18.0885 34.5537C18.0885 37.6606 19.6558 40.4936 22.2348 42.1505C21.2558 43.1319 20.4554 44.3216 19.9105 45.6874C18.8644 48.3101 18.9034 51.1827 20.0198 53.7757C21.1382 56.373 23.2033 58.379 25.8347 59.4242C27.1161 59.9333 28.4386 60.1744 29.7405 60.1744C32.874 60.1744 35.8849 58.7769 37.9017 56.3588C38.2024 56.3848 38.5033 56.3983 38.8039 56.3983C40.8672 56.3983 42.9072 55.7899 44.6575 54.6364C46.7889 53.2315 48.3375 51.1125 49.0184 48.6695L50.0943 44.8046C50.1925 44.4516 49.986 44.0856 49.6329 43.9874C49.2801 43.8891 48.914 44.0956 48.8157 44.4487L47.7398 48.3137C46.6251 52.3138 42.9059 55.0611 38.8212 55.0692C39.1171 54.58 39.3779 54.0612 39.5965 53.5133C40.6432 50.8922 40.6056 48.0214 39.4908 45.4296C38.467 43.0496 36.647 41.1657 34.3242 40.0612C35.4883 38.5541 36.1431 36.726 36.1962 34.8073L50.4046 38.7479L49.6529 41.4464C49.5545 41.7994 49.7609 42.1653 50.114 42.2637C50.1736 42.2804 50.2335 42.2883 50.2924 42.2883C50.5829 42.2883 50.8496 42.0961 50.9314 41.8026L54.7046 28.2585C55.4574 25.5556 55.1066 22.7121 53.7165 20.2517ZM38.3639 53.0213C38.2198 53.3821 38.0553 53.7288 37.8723 54.0608L20.7829 47.2723C20.8797 46.9038 20.9997 46.5388 21.1431 46.1792C21.2861 45.8208 21.4499 45.4768 21.6313 45.1469L38.722 51.9373C38.6256 52.3027 38.5062 52.6645 38.3639 53.0213ZM26.3247 58.1909C24.023 57.2766 22.2169 55.5222 21.2388 53.2509C20.5981 51.763 20.3633 50.1699 20.536 48.6024L37.1331 55.1953C34.6769 58.4182 30.2753 59.7601 26.3247 58.1909ZM38.2715 45.954C38.9123 47.4435 39.1459 49.0386 38.9707 50.6078L22.3684 44.0115C24.1272 41.699 26.8869 40.3531 29.7644 40.3531C30.9034 40.3531 32.0613 40.5641 33.1823 41.0094C35.4865 41.9255 37.294 43.6815 38.2715 45.954ZM53.4259 27.9021L50.7606 37.4692L36.1278 33.4109C35.8992 31.611 35.1379 29.9745 34.0072 28.6641L35.5948 22.9589C36.9627 18.0555 42.0762 15.1753 46.9896 16.5377C49.3631 17.196 51.3418 18.7469 52.561 20.9046C53.7766 23.056 54.0836 25.5412 53.4259 27.9021Z" fill="#000D44"/>
<path d="M29.2846 34.3995C29.6511 34.3995 29.9482 34.1024 29.9482 33.7359C29.9482 33.3694 29.6511 33.0723 29.2846 33.0723H29.2671C28.9006 33.0723 28.6035 33.3694 28.6035 33.7359C28.6035 34.1024 28.9006 34.3995 29.2671 34.3995H29.2846Z" fill="#000D44"/>
<path d="M27.407 38.0089H27.4246C27.7911 38.0089 28.0882 37.7118 28.0882 37.3453C28.0882 36.9789 27.7911 36.6818 27.4246 36.6818H27.407C27.0405 36.6818 26.7433 36.9789 26.7433 37.3453C26.7433 37.7118 27.0405 38.0089 27.407 38.0089Z" fill="#000D44"/>
<path d="M23.8625 35.36C24.229 35.36 24.5262 35.0628 24.5262 34.6963C24.5262 34.3299 24.229 34.0327 23.8625 34.0327H23.8424C23.4759 34.0327 23.1788 34.3299 23.1788 34.6963C23.1788 35.0628 23.4759 35.36 23.8424 35.36H23.8625Z" fill="#000D44"/>
<path d="M26.2933 29.7214H26.2756C25.9091 29.7214 25.612 30.0185 25.612 30.385C25.612 30.7515 25.9091 31.0486 26.2756 31.0486H26.2933C26.6597 31.0486 26.9569 30.7515 26.9569 30.385C26.9569 30.0185 26.6598 29.7214 26.2933 29.7214Z" fill="#000D44"/>
</g>
</g>
</g>
<defs>
<clipPath id="clip0_1_218">
<rect width="45.302" height="45.302" fill="white" transform="translate(13.9394 14.8723)"/>
</clipPath>
<clipPath id="clip1_1_218">
<rect width="45.302" height="45.302" fill="white" transform="translate(13.9394 14.8723)"/>
</clipPath>
<clipPath id="clip2_1_218">
<rect width="45.302" height="45.302" fill="white" transform="translate(13.9394 14.8723)"/>
</clipPath>
</defs>
</svg>
