<svg width="73" height="74" viewBox="0 0 73 74" fill="none" xmlns="http://www.w3.org/2000/svg">
<rect x="0.348663" y="0.871582" width="72.4833" height="72.4833" rx="36.2416" fill="#E6E9EE"/>
<g clip-path="url(#clip0_1_328)">
<g clip-path="url(#clip1_1_328)">
<g clip-path="url(#clip2_1_328)">
<mask id="mask0_1_328" style="mask-type:luminance" maskUnits="userSpaceOnUse" x="13" y="14" width="47" height="47">
<path d="M59.6074 14.2034H13.1205V60.6903H59.6074V14.2034Z" fill="white"/>
</mask>
<g mask="url(#mask0_1_328)">
<path d="M37.7984 42.8405C37.4109 42.8405 37.0298 42.6574 36.7916 42.3154C35.0852 39.8664 32.6063 37.9411 29.8112 36.8936C29.4226 36.7479 29.0261 36.6171 28.6066 36.479C27.5171 36.1203 26.3906 35.7497 25.3459 35.0842C21.8969 32.8872 20.7497 28.3652 22.7346 24.7899C23.0631 24.198 23.8092 23.9847 24.4012 24.3132C24.9931 24.6417 25.2064 25.388 24.8779 25.9798C23.5211 28.4237 24.3051 31.5148 26.6626 33.0166C27.4484 33.5172 28.3836 33.8249 29.3734 34.1509C29.7977 34.2905 30.2361 34.4346 30.6712 34.5977C33.927 35.8179 36.815 38.0612 38.8028 40.914C39.1898 41.4693 39.0533 42.2333 38.4979 42.6203C38.2844 42.769 38.0401 42.8405 37.7984 42.8405Z" fill="#1F5FFF"/>
<path d="M52.6599 33.7025C52.335 33.3745 52.3488 32.8429 52.6881 32.5299C52.7932 32.433 52.8984 32.3362 53.004 32.2395C55.1449 30.2786 56.6292 27.5553 56.5277 24.3966C56.359 19.1542 52.0462 14.9293 46.8014 14.8845C41.3401 14.8379 36.8985 19.2508 36.8985 24.7012C36.8985 25.1395 37.0315 27.1066 37.1047 28.1555C37.1312 28.5361 36.8726 28.8776 36.4991 28.9557C36.0618 29.047 35.7951 29.4927 35.9234 29.9207C36.5501 32.0111 38.6474 37.4513 43.4242 37.0712C44.2547 37.0051 45.0058 36.8879 45.694 36.7298L45.5229 37.7266L38.6987 40.2555L32.1376 49.2873V52.9223C32.1376 58.4741 40.5385 64.7593 50.2268 54.6306C57.4249 47.1054 56.2 37.2745 52.6599 33.7025Z" fill="#1AB3FA"/>
<path d="M52.6882 32.5299C52.7933 32.433 52.8986 32.3362 53.0042 32.2395C55.1451 30.2786 56.6293 27.5553 56.5278 24.3966C56.3592 19.1542 52.0464 14.9294 46.8015 14.8845C46.4642 14.8816 46.1307 14.8959 45.802 14.9263C50.671 15.3757 54.5523 19.4289 54.712 24.3964C54.8135 27.5551 53.3293 30.2785 51.1884 32.2394C51.0829 32.3361 50.9777 32.4329 50.8727 32.5297C50.5332 32.8428 50.5194 33.3746 50.8445 33.7025C54.3845 37.2745 55.6094 47.1052 48.4112 54.6306C45.0456 58.1492 41.8355 59.6866 39.0788 59.9624C42.1918 60.2862 46.0921 58.9536 50.227 54.6306C57.4253 47.1052 56.2002 37.2744 52.6602 33.7024C52.335 33.3746 52.3488 32.8429 52.6882 32.5299Z" fill="#1F5FFF"/>
<path d="M51.0011 36.6174C50.296 34.9129 48.3269 34.0811 46.5919 34.8235L39.4408 37.9622C39.0145 38.1454 38.5184 38.0312 38.2156 37.6796L34.8316 33.752C34.0282 32.8196 32.6232 32.7101 31.6855 33.5072C30.7407 34.3104 30.6287 35.7287 31.4356 36.6702L36.6151 42.7143C37.8801 44.1904 39.9442 44.6975 41.7493 43.9756L49.1471 41.0004C50.8797 40.3113 51.714 38.3397 51.0011 36.6174Z" fill="#1AB3FA"/>
<path d="M33.4171 34.6631L37.452 39.3714C37.7549 39.7229 38.2507 39.8374 38.6769 39.6542L45.8281 36.5154C47.5631 35.773 49.5324 36.6046 50.2375 38.3092C50.3465 38.5726 50.4191 38.8418 50.4579 39.1113C50.4984 39.3925 50.8852 39.4474 50.9951 39.1853C51.3271 38.3934 51.3559 37.4746 51.001 36.6173C50.2959 34.9128 48.3268 34.0809 46.5918 34.8233L39.4407 37.9621C39.0144 38.1453 38.5183 38.031 38.2155 37.6795L34.8668 33.7925C34.0645 32.8612 32.6105 32.7135 31.6775 33.5139C31.533 33.6378 31.4082 33.7762 31.3034 33.925C32.0633 33.7817 32.8765 34.0356 33.4171 34.6631Z" fill="#1F5FFF"/>
<path d="M32.7229 40.3739H27.7856C27.6113 40.3739 27.4455 40.2984 27.331 40.167L26.2976 38.9794C25.8942 38.516 25.3098 38.2501 24.6953 38.2501H24.6268C23.4537 38.2501 22.5028 39.201 22.5028 40.374V44.9585C22.5028 45.656 23.0682 46.2214 23.7657 46.2214H29.9448C31.1559 46.2214 32.1378 47.2032 32.1378 48.4145V50.1632L39.3805 48.93V47.0318C39.3805 43.3548 36.4 40.3739 32.7229 40.3739Z" fill="#1AB3FA"/>
<path d="M39.3805 47.0316L39.3801 47.0508C39.3801 47.5447 38.9798 47.945 38.4859 47.945C38.0407 47.945 37.657 47.6184 37.6006 47.1768C37.1819 43.9025 34.3854 41.3723 30.9979 41.3723H26.0606C25.8862 41.3723 25.7201 41.297 25.6056 41.1654L24.5724 39.9777C24.1693 39.5147 23.5846 39.2487 22.9699 39.2487H22.9018C22.8755 39.2487 22.85 39.2495 22.8246 39.2505C23.1996 38.6494 23.8659 38.2499 24.6268 38.2499H24.6953C25.31 38.2499 25.8945 38.5162 26.2976 38.9793L27.3311 40.1668C27.4454 40.2985 27.6114 40.3738 27.7857 40.3738H32.723C36.3992 40.3739 39.3805 43.3545 39.3805 47.0316Z" fill="#1F5FFF"/>
<path d="M30.3021 27.1438L26.8086 23.6503C26.6872 23.529 26.6872 23.3321 26.8086 23.2107L30.3021 19.7172C30.4234 19.5958 30.4234 19.399 30.3021 19.2776L27.4473 16.4228C27.3259 16.3014 27.1291 16.3014 27.0077 16.4228L23.5142 19.9163C23.3927 20.0377 23.1959 20.0377 23.0746 19.9163L19.5809 16.4227C19.4595 16.3013 19.2627 16.3013 19.1413 16.4227L16.2865 19.2775C16.1651 19.3989 16.1651 19.5957 16.2865 19.7171L19.78 23.2106C19.9013 23.332 19.9013 23.5289 19.78 23.6502L16.2865 27.1438C16.1651 27.2652 16.1651 27.4621 16.2865 27.5835L19.1412 30.4382C19.2626 30.5597 19.4595 30.5597 19.5808 30.4382L23.0744 26.9447C23.1957 26.8233 23.3926 26.8233 23.514 26.9447L27.0075 30.4382C27.1289 30.5597 27.3257 30.5597 27.4471 30.4382L30.3019 27.5835C30.4234 27.4621 30.4234 27.2652 30.3021 27.1438Z" fill="#1F5FFF"/>
<path d="M53.1501 33.0315C53.2547 32.9349 53.3593 32.8386 53.4643 32.7424C55.9785 30.4395 57.3083 27.4679 57.2088 24.3754C57.1219 21.6629 55.9983 19.1164 54.0451 17.2052C52.0907 15.2931 49.5207 14.227 46.8078 14.2035C46.7771 14.2033 46.7467 14.2032 46.716 14.2032C43.9277 14.2032 41.3058 15.282 39.3243 17.2468C37.321 19.2332 36.2178 21.8807 36.2178 24.7016C36.2178 25.1866 36.363 27.3125 36.4255 28.2033C36.4283 28.2443 36.4001 28.2813 36.3596 28.2898C35.9638 28.3726 35.6185 28.6196 35.4123 28.967C35.2068 29.3135 35.1555 29.7329 35.2713 30.117C35.7701 31.7807 37.1407 35.3927 39.9679 36.9883L39.1721 37.3376C39.018 37.4039 38.8407 37.3631 38.7312 37.2363L35.3475 33.3088C34.3045 32.0971 32.464 31.9534 31.2442 32.9891C30.9611 33.2297 30.7315 33.5163 30.5611 33.834C30.2373 33.7195 29.5838 33.5039 29.5838 33.5039C28.6366 33.1918 27.7418 32.8971 27.0285 32.4433C25.9209 31.7371 25.1891 30.6102 24.9663 29.3612L26.5257 30.9207C26.7131 31.1081 26.9621 31.2114 27.2272 31.2114C27.4922 31.2114 27.7413 31.108 27.9285 30.9209L30.7836 28.066C31.171 27.6784 31.1711 27.0508 30.7834 26.6631L27.5515 23.4314L30.7835 20.1994C31.17 19.8128 31.1701 19.1836 30.7835 18.7966L27.9285 15.9416C27.5416 15.555 26.9126 15.5551 26.5259 15.9417L23.294 19.1737L20.062 15.9417C19.6753 15.5551 19.0461 15.5551 18.6593 15.9417L15.8043 18.7967C15.617 18.9841 15.5138 19.2332 15.5138 19.4981C15.5138 19.7631 15.6171 20.0122 15.8044 20.1995L19.0363 23.4314L15.8045 26.6632C15.6171 26.8506 15.5138 27.0997 15.5138 27.3647C15.5138 27.6296 15.617 27.8787 15.8044 28.0661L18.6591 30.9209C19.0468 31.3085 19.6743 31.3087 20.0619 30.921L21.1791 29.8038C21.5423 32.1874 22.9163 34.3449 24.9798 35.6594C27.4456 37.2315 29.5384 36.9815 32.68 39.1699L33.1402 39.7068C33.0019 39.699 32.8629 39.6942 32.7228 39.6942H27.821L26.8111 38.5335C25.1185 36.5887 21.8215 37.7794 21.8215 40.3752V44.9598C21.8215 46.0316 22.6936 46.9037 23.7654 46.9037H29.9446C30.7783 46.9037 31.4566 47.5821 31.4566 48.4159V52.924C31.4566 55.8511 33.4461 58.6805 36.4074 59.9644C37.5206 60.4472 38.7287 60.6903 39.9812 60.6903C40.7882 60.6902 41.6138 60.5893 42.444 60.3863C44.8629 59.7953 47.2901 58.3714 49.6581 56.154C49.9326 55.8969 49.9469 55.4661 49.6898 55.1914C49.4327 54.9168 49.0018 54.9026 48.7273 55.1598C46.5322 57.2152 44.3095 58.5285 42.1207 59.0633C40.2932 59.5098 38.5049 59.3894 36.9493 58.7149C34.5172 57.6603 32.8186 55.279 32.8186 52.9239V48.4158C32.8186 46.831 31.5293 45.5417 29.9447 45.5417H23.7655C23.4447 45.5417 23.1835 45.2807 23.1835 44.9598V40.3752C23.1835 39.0132 24.9246 38.4405 25.7837 39.4277L26.8172 40.6153C27.0612 40.8955 27.4141 41.0561 27.7855 41.0561H32.7229C36.0184 41.0561 38.6996 43.7374 38.6996 47.0332V49.346C38.6996 49.7221 39.0045 50.027 39.3806 50.027C39.7566 50.027 40.0616 49.722 40.0616 49.346V47.0332C40.0616 46.3179 39.9568 45.6269 39.7651 44.9728C39.8638 44.9784 39.9624 44.9822 40.0611 44.9822C40.7222 44.9822 41.3827 44.8572 42.0031 44.6089L45.6005 43.1626C45.9495 43.0222 46.1186 42.6255 45.9783 42.2766C45.838 41.9277 45.4413 41.7587 45.0924 41.8989L41.496 43.3448C40.7541 43.6418 39.9344 43.6989 39.1601 43.5132C38.3265 41.9946 36.971 40.8026 35.337 40.1773L31.9524 36.2284C31.6807 35.9113 31.5491 35.5077 31.5819 35.0915C31.6148 34.6754 31.808 34.2974 32.1257 34.0273C32.7766 33.4747 33.7587 33.5513 34.3152 34.1978L37.6995 38.1261C38.1993 38.7052 39.0072 38.8913 39.7145 38.587L46.8599 35.4507C47.5227 35.1671 48.2527 35.1596 48.9157 35.4302C49.5806 35.7014 50.0978 36.2159 50.3718 36.8792C50.6463 37.5424 50.6436 38.2715 50.3643 38.9321C50.0848 39.5931 49.5632 40.1033 48.8925 40.3698L48.0409 40.713C47.6921 40.8536 47.5231 41.2503 47.6637 41.5991C47.7706 41.8646 48.0259 42.0258 48.2956 42.0258C48.5157 42.0258 48.5812 41.9539 49.3986 41.6343C50.4101 41.2387 51.1962 40.4617 51.6187 39.4622C52.0411 38.4633 52.0452 37.3609 51.6304 36.3585C51.2163 35.3565 50.435 34.5787 49.43 34.1688C48.4271 33.7598 47.324 33.7702 46.3182 34.201L41.6793 36.237C40.3869 35.8743 39.236 34.9352 38.256 33.4401C37.3471 32.0534 36.8131 30.5178 36.5753 29.725C36.5616 29.6796 36.5912 29.6328 36.6385 29.623C37.3411 29.4759 37.8336 28.8252 37.7838 28.1088C37.6851 26.6985 37.5794 25.0628 37.5794 24.7017C37.5794 22.2467 38.5395 19.9427 40.2829 18.2139C42.0262 16.4853 44.3356 15.5466 46.7957 15.5656C49.1545 15.586 51.3907 16.5141 53.0922 18.1788C54.7932 19.8431 55.7716 22.0594 55.8472 24.4193C55.9337 27.1085 54.7606 29.7078 52.5444 31.7379C52.4384 31.8348 52.3323 31.9326 52.2263 32.0303C51.9251 32.3081 51.754 32.687 51.7446 33.0968C51.7351 33.5059 51.8883 33.8913 52.1762 34.1825C53.7969 35.8177 54.8033 38.8261 54.8027 42.0339C54.802 45.8775 53.3965 49.7364 50.8451 52.8994C50.609 53.1922 50.6549 53.621 50.9475 53.8571C51.2397 54.0926 51.6685 54.0479 51.9052 53.7545C54.6511 50.3501 56.1638 46.1877 56.1647 42.034C56.1653 38.4267 55.0359 35.1331 53.144 33.2243C53.0911 33.1705 53.0945 33.0827 53.1501 33.0315ZM19.3606 29.6961L17.0291 27.3646L20.2612 24.1326C20.6477 23.7457 20.6476 23.1165 20.261 22.7299L17.0291 19.4979L19.3606 17.1664L22.5926 20.3985C22.9792 20.785 23.6085 20.7851 23.9953 20.3984L27.2272 17.1664L29.5587 19.4979L26.3267 22.73C26.1393 22.9174 26.0362 23.1664 26.0362 23.4314C26.0362 23.6962 26.1394 23.9454 26.3268 24.1328L29.5587 27.3646L27.2272 29.6961L23.9953 26.4642C23.6086 26.0776 22.9793 26.0776 22.5926 26.4642L19.3606 29.6961ZM25.7117 34.5108C23.6797 33.2162 22.4446 30.9461 22.4444 28.5384L23.2939 27.689L23.5626 27.9576C23.3401 30.1927 24.387 32.3745 26.2967 33.5921C27.154 34.1377 28.1272 34.4582 29.1602 34.7985L29.177 34.804C29.5185 34.9167 29.8693 35.033 30.2162 35.1578C30.2071 35.6 30.2972 36.031 30.4778 36.4256C30.3363 36.3676 30.1941 36.3111 30.051 36.2575C28.6499 35.7299 27.069 35.3759 25.7117 34.5108Z" fill="#000D44"/>
<path d="M41.6494 26.757C41.3215 27.1381 40.7682 27.2145 40.3511 26.9512C40.0328 26.7502 39.6124 26.8454 39.4116 27.1634C39.2108 27.4814 39.3058 27.902 39.6238 28.1028C40.0048 28.3434 40.4416 28.4685 40.8858 28.4685C41.5993 28.4685 42.2489 28.1487 42.6819 27.6451C42.9272 27.3599 42.8948 26.93 42.6097 26.6847C42.3246 26.4395 41.8945 26.4718 41.6494 26.757Z" fill="#000D44"/>
<path d="M46.7098 29.6706C46.3853 29.4804 45.9683 29.5892 45.778 29.9139C45.5879 30.2383 45.6969 30.6555 46.0213 30.8456C46.3552 31.0413 46.719 31.1606 47.1025 31.2001C48.6483 31.36 50.0437 30.1571 50.2131 28.5191C50.3809 26.896 49.2849 25.4203 47.717 25.2583C47.1466 25.1995 46.579 25.3229 46.0754 25.6157C45.7502 25.8048 45.64 26.2216 45.8291 26.5468C46.0182 26.8718 46.4349 26.982 46.76 26.7931C47.0126 26.6461 47.295 26.5841 47.5768 26.613C48.3503 26.693 48.9533 27.4598 48.8583 28.3791C48.7391 29.5319 47.6075 30.1961 46.7098 29.6706Z" fill="#000D44"/>
</g>
</g>
</g>
</g>
<defs>
<clipPath id="clip0_1_328">
<rect width="46.4869" height="46.4869" fill="white" transform="translate(13.1205 14.2034)"/>
</clipPath>
<clipPath id="clip1_1_328">
<rect width="46.4869" height="46.4869" fill="white" transform="translate(13.1205 14.2034)"/>
</clipPath>
<clipPath id="clip2_1_328">
<rect width="46.4869" height="46.4869" fill="white" transform="translate(13.1205 14.2034)"/>
</clipPath>
</defs>
</svg>
