<svg width="73" height="73" viewBox="0 0 73 73" fill="none" xmlns="http://www.w3.org/2000/svg">
<rect x="0.228165" y="0.384644" width="72.4833" height="72.4833" rx="36.2416" fill="#E6E9EE"/>
<g clip-path="url(#clip0_1_271)">
<g clip-path="url(#clip1_1_271)">
<g clip-path="url(#clip2_1_271)">
<g clip-path="url(#clip3_1_271)">
<mask id="mask0_1_271" style="mask-type:luminance" maskUnits="userSpaceOnUse" x="14" y="15" width="46" height="46">
<path d="M59.4728 15.4971H14.1708V60.7991H59.4728V15.4971Z" fill="white"/>
</mask>
<g mask="url(#mask0_1_271)">
<path d="M40.7219 52.9435C40.2903 52.9263 39.8725 52.7122 39.6107 52.3279C39.1723 51.684 39.3388 50.8067 39.9827 50.3683C41.2334 49.5167 42.2374 48.197 42.8099 46.6523C44.727 41.4794 40.9618 38.918 40.3702 34.3527C39.8155 30.0713 42.7324 25.8029 46.9281 24.7538C47.6839 24.5651 48.4495 25.0242 48.6384 25.7798C48.8274 26.5355 48.368 27.3012 47.6124 27.4902C44.8048 28.1922 42.7965 31.1282 43.1676 33.9902C43.4701 36.326 45.1681 38.5538 45.8524 41.2801C46.9087 45.4884 45.1078 50.291 41.5704 52.6998C41.3108 52.8765 41.0134 52.955 40.7219 52.9435Z" fill="#1F5FFF"/>
<path d="M32.9218 52.9435C33.3532 52.9263 33.7712 52.7122 34.0329 52.3279C34.4713 51.684 34.3048 50.8067 33.6609 50.3683C32.4101 49.5167 31.4062 48.197 30.8338 46.6523C28.9166 41.4794 32.6818 38.918 33.2734 34.3527C33.8281 30.0713 30.9112 25.8029 26.7155 24.7538C25.9598 24.5651 25.1942 25.0242 25.0052 25.7798C24.8162 26.5355 25.2756 27.3012 26.0312 27.4902C28.8388 28.1922 30.847 31.1282 30.476 33.9902C30.1736 36.326 28.4755 38.5538 27.7912 41.2801C26.7349 45.4884 28.5358 50.291 32.0732 52.6998C32.3329 52.8765 32.6303 52.955 32.9218 52.9435Z" fill="#1F5FFF"/>
<path d="M51.0872 16.3481H50.344C48.2678 16.3481 46.5286 17.9949 46.4993 20.071C46.4847 21.1082 46.888 22.0507 47.5515 22.7415C47.7138 22.9105 47.7132 23.179 47.5509 23.348C46.8994 24.0267 46.499 24.948 46.499 25.9634C46.499 26.9782 46.8994 27.8994 47.5509 28.5781C47.7132 28.7472 47.7138 29.0157 47.5515 29.1846C46.888 29.8754 46.4847 30.8179 46.4993 31.8552C46.5287 33.9312 48.2678 35.5779 50.344 35.5779H51.0873C54.9916 35.5779 58.8093 31.2729 58.8093 25.9634C58.8093 20.654 54.9915 16.3481 51.0872 16.3481Z" fill="#1AB3FA"/>
<path d="M51.0872 16.3481H50.2762C49.9997 16.3481 49.7306 16.3787 49.4709 16.4351C53.0162 17.0672 56.2291 21.0927 56.2291 25.9636C56.2291 30.8344 53.0162 34.8593 49.471 35.4912C49.7307 35.5476 49.9998 35.5781 50.2763 35.5781H51.0873C54.9916 35.5781 58.8093 31.2731 58.8093 25.9636C58.8092 20.654 54.9915 16.3481 51.0872 16.3481Z" fill="#1F5FFF"/>
<path d="M22.5563 16.3481H23.2996C25.3758 16.3481 27.115 17.9949 27.1442 20.071C27.1588 21.1082 26.7556 22.0507 26.0921 22.7415C25.9297 22.9105 25.9304 23.179 26.0926 23.348C26.7442 24.0267 27.1445 24.948 27.1445 25.9634C27.1445 26.9782 26.7442 27.8994 26.0926 28.578C25.9304 28.7471 25.9297 29.0156 26.0921 29.1846C26.7556 29.8753 27.1588 30.8178 27.1442 31.8552C27.1149 33.9312 25.3758 35.5779 23.2996 35.5779H22.5562C18.6519 35.5779 14.8343 31.2729 14.8343 25.9634C14.8343 20.654 18.652 16.3481 22.5563 16.3481Z" fill="#1AB3FA"/>
<path d="M27.1447 25.9635C27.1447 24.948 26.7443 24.0267 26.0927 23.3481C25.9305 23.179 25.9298 22.9106 26.0922 22.7416C26.7557 22.0508 27.1591 21.1082 27.1443 20.0709C27.1154 18.0226 25.3482 16.3481 23.2996 16.3481H22.5564C22.2338 16.3481 21.9118 16.3781 21.5925 16.4351C23.2915 16.8043 24.5646 18.3161 24.5646 20.1256C24.5646 21.141 24.1642 22.0624 23.5126 22.741C23.3502 22.9102 23.3502 23.1788 23.5126 23.348C24.1642 24.0267 24.5646 24.948 24.5646 25.9635C24.5646 26.9783 24.1642 27.8995 23.5126 28.5782C23.3502 28.7475 23.3502 29.016 23.5126 29.1853C24.1642 29.8639 24.5646 30.7853 24.5646 31.8007C24.5646 33.6102 23.2915 35.1219 21.5925 35.4911C21.9119 35.548 22.2338 35.578 22.5564 35.578H23.2998C25.3485 35.578 27.1157 33.9036 27.1444 31.855C27.159 30.8178 26.7558 29.8754 26.0923 29.1846C25.9299 29.0157 25.9306 28.7471 26.0928 28.5781C26.7443 27.8995 27.1447 26.9783 27.1447 25.9635Z" fill="#1F5FFF"/>
<path d="M44.8406 48.9818C44.5004 46.8132 41.2504 45.4055 36.8218 45.4055C32.3931 45.4055 29.1431 46.8132 28.8029 48.9818C28.4604 51.1649 31.1758 54.5362 34.6498 55.6052C35.0318 55.7227 35.2901 56.0788 35.2901 56.4784V58.3725C35.2901 59.1973 35.9239 59.9069 36.7476 59.9456C37.6271 59.987 38.3533 59.2862 38.3533 58.4158V56.4784C38.3533 56.0788 38.6116 55.7228 38.9936 55.6052C42.4677 54.5362 45.183 51.1649 44.8406 48.9818Z" fill="#1AB3FA"/>
<path d="M44.8406 48.982C44.5505 47.1331 42.1443 45.838 38.6963 45.4962C41.1465 46.1644 42.7771 47.4808 43.0126 48.982C43.355 51.1651 40.6397 53.7842 37.1658 54.8532C36.7838 54.9707 36.5254 55.3268 36.5254 55.7264V58.4159C36.5254 58.9164 36.2846 59.3598 35.9134 59.6392C36.1476 59.8183 36.4338 59.931 36.7477 59.9458C37.6272 59.9872 38.3534 59.2863 38.3534 58.4159V56.4785C38.3534 56.0789 38.6118 55.7229 38.9937 55.6054C42.4677 54.5365 45.183 51.1651 44.8406 48.982Z" fill="#1F5FFF"/>
<path d="M56.9233 18.7414C55.3131 16.7988 53.1859 15.6847 51.0873 15.6847H50.3441C47.8924 15.6847 45.8699 17.6482 45.8358 20.0617C45.8202 21.1676 46.2071 22.2187 46.9293 23.0447C46.6041 23.4169 46.3475 23.836 46.1642 24.2849C43.5173 25.1491 41.3338 27.2361 40.2826 29.9293C40.1493 30.2706 40.318 30.6554 40.6595 30.7887C40.7388 30.8197 40.8204 30.8344 40.9007 30.8344C41.1661 30.8344 41.4167 30.6739 41.519 30.4119C42.3261 28.3439 43.9011 26.6921 45.8385 25.8304C45.8223 26.3779 45.9029 26.8928 46.0669 27.3809C43.6679 28.6496 42.1645 31.411 42.5096 34.0756C42.6853 35.4317 43.2695 36.6962 43.888 38.0349C44.3892 39.1196 44.9072 40.241 45.2085 41.4418C45.6865 43.3462 45.5448 45.4471 44.8318 47.3796C44.523 46.9818 44.1179 46.6217 43.6264 46.3047C44.6012 43.108 43.5342 40.8104 42.4992 38.5854C41.878 37.2499 41.2357 35.8691 41.028 34.2683C40.9827 33.917 40.9621 33.562 40.967 33.213C40.9722 32.8465 40.6791 32.5453 40.3126 32.5402C40.3095 32.5402 40.3064 32.5402 40.3034 32.5402C39.9411 32.5402 39.645 32.8313 39.6401 33.1946C39.6343 33.6062 39.6584 34.0245 39.7118 34.4385C39.9458 36.2431 40.6322 37.7183 41.2958 39.145C42.2771 41.2544 43.1338 43.0997 42.4244 45.6856C40.9591 45.0805 39.044 44.7423 36.8219 44.7423C34.5997 44.7423 32.6846 45.0806 31.2191 45.6858C30.9836 44.8257 30.9086 43.9995 30.9912 43.1782C31.0279 42.8136 30.7619 42.4882 30.3974 42.4515C30.0331 42.4155 29.7074 42.6808 29.6707 43.0454C29.5628 44.1196 29.6763 45.191 30.0167 46.3052C29.5255 46.6221 29.1206 46.982 28.812 47.3797C28.0991 45.4471 27.9574 43.3463 28.4353 41.4418C28.7366 40.241 29.2547 39.1196 29.7558 38.035C30.3743 36.6963 30.9586 35.4317 31.1343 34.0756C31.4795 31.411 29.976 28.6496 27.577 27.3809C27.7436 26.8856 27.8215 26.3699 27.8054 25.8295C31.0059 27.2509 33.0702 30.7598 32.6158 34.2677C32.4077 35.8699 31.7651 37.2512 31.1437 38.587C30.9528 38.9976 30.7552 39.4222 30.5739 39.8458C30.4297 40.1827 30.5859 40.5728 30.9228 40.7171C31.2597 40.8613 31.6497 40.7051 31.794 40.3683C31.9673 39.9635 32.1518 39.5669 32.3472 39.1468C33.011 37.7197 33.6975 36.244 33.932 34.4384C34.5005 30.0485 31.6844 25.6584 27.4796 24.2849C27.2963 23.8361 27.0398 23.4171 26.7146 23.0449C27.4368 22.2187 27.8237 21.1676 27.8081 20.062C27.7741 17.6485 25.7516 15.6849 23.2999 15.6849H22.5566C20.458 15.6849 18.3309 16.799 16.7206 18.7416C15.0762 20.7249 14.1708 23.2898 14.1708 25.9637C14.1708 28.6376 15.0762 31.2022 16.7204 33.1855C18.3306 35.1278 20.4577 36.2418 22.5564 36.2418H23.2996C25.7514 36.2418 27.7738 34.2783 27.8078 31.8647C27.8235 30.7592 27.4366 29.7081 26.7143 28.8817C26.8049 28.778 26.8902 28.6706 26.9702 28.56C28.8898 29.5772 30.0929 31.7808 29.8178 33.9047C29.6683 35.0593 29.1254 36.2342 28.5507 37.4781C28.024 38.6182 27.4794 39.7971 27.1478 41.1186C26.498 43.7079 26.8536 46.6079 28.1208 49.1088C28.0242 50.3249 28.6235 51.7799 29.7913 53.1431C31.0196 54.577 32.7194 55.7056 34.4548 56.2396C34.556 56.2707 34.6266 56.3689 34.6266 56.4785V58.3725C34.6266 59.5712 35.5446 60.5533 36.7166 60.6085C37.9908 60.67 39.0171 59.6466 39.0171 58.4159V56.4785C39.0171 56.3689 39.0877 56.2706 39.1889 56.2395C40.9242 55.7056 42.624 54.5771 43.8523 53.1431C45.0201 51.7799 45.6193 50.3249 45.5228 49.1088C46.7901 46.6078 47.1455 43.7078 46.4958 41.1185C45.7961 38.3294 44.1093 36.0935 43.8257 33.9047C43.5506 31.7808 44.7538 29.5772 46.6734 28.56C46.7534 28.6706 46.8386 28.778 46.9292 28.8818C46.207 29.708 45.8202 30.7591 45.8357 31.8647C45.8698 34.2783 47.8922 36.2418 50.3439 36.2418H51.0872C53.1859 36.2418 55.313 35.1278 56.9231 33.1855C58.5674 31.2022 59.4728 28.6376 59.4728 25.9637C59.4728 23.2898 58.5674 20.7249 56.9233 18.7414ZM25.6136 29.6445C26.1845 30.2389 26.4924 31.0207 26.4808 31.8461C26.457 33.5382 25.03 34.9147 23.2997 34.9147H22.5564C20.8542 34.9147 19.0995 33.9758 17.7422 32.3386C16.2949 30.5929 15.498 28.3289 15.498 25.9637C15.498 23.5984 16.2949 21.3344 17.7421 19.5885C19.0994 17.9509 20.8541 17.0119 22.5564 17.0119H23.2996C25.0299 17.0119 26.457 18.3885 26.4807 20.0805C26.4923 20.9058 26.1844 21.6877 25.6136 22.282C25.2028 22.7096 25.203 23.3798 25.6141 23.8078C26.7704 25.0121 26.7705 26.9141 25.6141 28.1188C25.2032 28.5469 25.203 29.2171 25.6136 29.6445ZM42.8444 52.2797C41.775 53.528 40.3004 54.509 38.7985 54.971C38.1353 55.1751 37.6897 55.7809 37.6897 56.4786V58.416C37.6897 58.9084 37.2817 59.305 36.779 59.2829C36.3239 59.2615 35.9538 58.8532 35.9538 58.3726V56.4787C35.9538 55.781 35.5082 55.1752 34.845 54.9712C33.3432 54.5091 31.8686 53.528 30.7992 52.2798C29.839 51.1589 29.3253 49.9347 29.4586 49.0849C29.7371 47.3095 32.765 46.0694 36.8218 46.0694C40.8786 46.0694 43.9065 47.3095 44.1851 49.0849C44.3183 49.9346 43.8046 51.1588 42.8444 52.2797ZM55.9015 32.3385C54.5443 33.9757 52.7895 34.9146 51.0873 34.9146H50.344C48.6138 34.9146 47.1867 33.5381 47.1629 31.846C47.1513 31.0205 47.4593 30.2388 48.0303 29.6444C48.4407 29.2168 48.4405 28.5468 48.0295 28.1186C46.8712 26.9124 46.8753 25.0099 48.0296 23.8077C48.4405 23.3798 48.4407 22.7096 48.0301 22.2818C47.4593 21.6877 47.1513 20.9058 47.1629 20.0803C47.1868 18.3884 48.6138 17.0118 50.3441 17.0118H51.0873C52.7895 17.0118 54.5442 17.9509 55.9015 19.5884C57.3486 21.3344 58.1457 23.5984 58.1457 25.9637C58.1457 28.3289 57.3486 30.5929 55.9015 32.3385Z" fill="#000D44"/>
</g>
</g>
</g>
</g>
</g>
<defs>
<clipPath id="clip0_1_271">
<rect width="45.302" height="45.302" fill="white" transform="translate(13.8188 14.8724)"/>
</clipPath>
<clipPath id="clip1_1_271">
<rect width="45.302" height="45.302" fill="white" transform="translate(14.1708 15.4971)"/>
</clipPath>
<clipPath id="clip2_1_271">
<rect width="45.302" height="45.302" fill="white" transform="translate(14.1708 15.4971)"/>
</clipPath>
<clipPath id="clip3_1_271">
<rect width="45.302" height="45.302" fill="white" transform="translate(14.1708 15.4971)"/>
</clipPath>
</defs>
</svg>
