<svg width="73" height="74" viewBox="0 0 73 74" fill="none" xmlns="http://www.w3.org/2000/svg">
<rect x="0.167877" y="0.871582" width="72.4833" height="72.4833" rx="36.2416" fill="#E6E9EE"/>
<g clip-path="url(#clip0_1_404)">
<g clip-path="url(#clip1_1_404)">
<g clip-path="url(#clip2_1_404)">
<g clip-path="url(#clip3_1_404)">
<mask id="mask0_1_404" style="mask-type:luminance" maskUnits="userSpaceOnUse" x="12" y="13" width="47" height="48">
<path d="M58.7448 13.9819H12.2579V60.4689H58.7448V13.9819Z" fill="white"/>
</mask>
<g mask="url(#mask0_1_404)">
<path d="M39.8353 28.1917C40.1138 28.1452 40.3997 28.1211 40.6911 28.1211C43.5395 28.1211 45.8484 30.43 45.8484 33.2783C45.8484 33.8153 45.7661 34.333 45.6139 34.82C45.6139 34.82 44.469 37.3201 44.1193 37.585C43.7697 37.85 39.0725 38.8399 37.5687 37.1122C36.0652 35.3843 34.9934 32.4402 34.9934 32.4402L39.8353 28.1917Z" fill="#1AB3FA"/>
<path d="M30.7551 25.3185V30.7983L31.6571 30.8994L35.2619 24.059L41.6523 21.5189C41.2951 20.7684 40.8663 20.0867 40.3798 19.4891C39.5626 19.0766 38.6781 18.8507 37.7545 18.8507C34.5685 18.8507 31.8458 21.5334 30.7551 25.3185Z" fill="#1AB3FA"/>
<path d="M46.2793 25.0139C46.2793 24.467 46.2793 23.9144 46.2793 23.4161C42.5045 23.5753 34.953 24.8181 34.3731 32.1647L37.8985 33.7326C37.8985 33.7326 37.7896 24.7252 46.2793 25.0139Z" fill="#1F5FFF"/>
<path d="M28.2573 29.4257V20.7211C28.2573 20.083 27.7398 19.5656 27.1019 19.5656H26.4085C26.0446 19.7603 25.7971 20.1433 25.7971 20.5849V29.9598L28.2573 29.4257Z" fill="#1F5FFF"/>
<path d="M48.9659 39.2019C48.2644 37.6322 47.0635 36.4043 45.6172 35.6581C45.5707 35.668 45.525 35.6776 45.4782 35.6882C45.4782 35.6882 45.3856 35.5957 45.1689 35.447C43.8325 34.8679 42.3202 34.6846 40.814 35.0006C40.7352 35.0172 40.6557 35.0346 40.5752 35.0526C40.5752 35.0526 38.9835 33.4609 33.5447 32.864C32.3576 31.7316 31.1862 30.8719 30.0445 30.2948C28.9021 30.6382 27.8267 31.3631 26.8405 32.4881C23.657 36.1191 24.5521 42.5861 26.1109 45.1728C26.9738 47.4657 27.2419 49.0869 29.5972 51.8553C32.8179 55.6418 37.186 58.2748 42.024 59.4168L42.3507 59.4942C43.6605 59.3243 44.9132 58.8285 45.9885 58.0428L46.6024 57.5945C49.2582 55.6545 50.9252 52.6445 51.1609 49.3642C51.3741 46.3949 50.8503 43.4189 49.6355 40.7011L48.9659 39.2019Z" fill="#1AB3FA"/>
<path d="M49.3777 42.4622C49.3787 42.4644 49.3798 42.4664 49.3805 42.4682C49.5348 42.8137 49.8622 43.0162 50.2094 43.0162C50.3335 43.0162 50.4601 42.9903 50.5821 42.936C51.0468 42.7296 51.2475 42.2001 51.0396 41.7305C50.8322 41.2609 50.3051 41.0535 49.8398 41.2581C49.3744 41.4631 49.1716 41.9919 49.3777 42.4622Z" fill="#000D44"/>
<path d="M51.8826 45.1084C51.8046 44.6133 51.3397 44.2749 50.8442 44.3537C50.3491 44.4317 50.0111 44.8966 50.0894 45.3921C50.2931 46.682 50.3491 47.9968 50.2555 49.2995C50.0384 52.3195 48.512 55.0756 46.0672 56.8617L45.4533 57.31C44.2506 58.1885 42.828 58.6528 41.3387 58.6528C40.7997 58.6528 40.2602 58.59 39.7361 58.4662L37.33 57.898C32.6796 56.8 28.4378 54.2194 25.3859 50.632C24.0293 49.037 23.4175 47.8769 22.9476 46.682C22.9851 46.5608 22.9986 46.4299 22.9809 46.2954C22.9759 46.2565 22.529 42.3349 28.0594 39.8175C31.8522 38.091 33.6266 35.1384 34.244 33.8655C38.4022 34.4393 39.8332 35.6098 39.9397 35.7016C40.1592 35.9342 40.4621 36.0095 40.7756 35.9385C40.8511 35.9215 40.9259 35.9051 41.0004 35.8895C43.9098 35.2788 46.9106 36.8284 48.137 39.5724C48.3417 40.0303 48.8786 40.2357 49.3365 40.031C49.7943 39.8263 49.9994 39.2894 49.7951 38.8315C49.1003 37.2777 47.9321 35.9694 46.4776 35.1001C46.4782 35.0969 46.4796 35.094 46.4808 35.0909C46.6637 34.506 46.7563 33.896 46.7563 33.2782C46.7563 33.1544 46.7513 33.0317 46.7442 32.9096H47.3741C47.8753 32.9096 48.2821 32.5032 48.2821 32.0017C48.2821 31.5002 47.8753 31.0937 47.3741 31.0937H46.3477C46.1143 30.4916 45.7885 29.9351 45.3859 29.4432L45.7969 29.032C46.1516 28.6774 46.1516 28.1025 45.7969 27.7478C45.4422 27.3935 44.8678 27.3935 44.5131 27.7478L44.0378 28.2231C43.3015 27.7343 42.4528 27.402 41.5392 27.2736C42.7422 26.3114 44.3226 25.8557 46.2484 25.9213C46.4942 25.9305 46.7333 25.8376 46.9106 25.6667C47.0876 25.4957 47.1873 25.2602 47.1873 25.0141V21.5554C47.1873 21.0829 46.8251 20.6896 46.3541 20.6506C46.2069 20.6385 44.5066 20.5091 42.296 20.7751C41.3076 18.8624 39.9162 17.4416 38.316 16.6528L38.9586 15.6934C39.2377 15.2767 39.1261 14.7128 38.7093 14.434C38.2929 14.1549 37.729 14.2663 37.4498 14.683L36.5299 16.0566C36.1376 15.9843 35.7379 15.9456 35.3332 15.9456C35.0998 15.9456 34.8676 15.9587 34.6374 15.9832V14.8898C34.6374 14.3883 34.2309 13.9818 33.7294 13.9818C33.2279 13.9818 32.8215 14.3883 32.8215 14.8898V16.4425C31.9696 16.7894 31.1627 17.3132 30.4257 18.0069C29.8742 18.5258 29.378 19.1259 28.9428 19.7916C28.6024 19.1199 27.905 18.6577 27.1018 18.6577H24.6372C23.4994 18.6577 22.5737 19.5834 22.5737 20.7212V30.0024C22.117 30.3575 21.6764 30.7734 21.2551 31.254C19.2647 33.5243 18.8685 36.4992 18.8866 38.595C18.9072 40.9655 19.4803 43.3823 20.3862 44.9318C20.5231 45.2985 20.6461 45.6521 20.7657 45.995C21.376 47.745 21.9524 49.3981 24.0027 51.8084C27.3036 55.6888 31.8883 58.479 36.9129 59.6654L39.3186 60.2335C39.9797 60.3895 40.6593 60.4686 41.3387 60.4686C43.2157 60.4686 45.0089 59.8835 46.524 58.7765L47.1379 58.3282C50.015 56.2264 51.8114 52.9834 52.0667 49.4297C52.1703 47.989 52.1083 46.5352 51.8826 45.1084ZM40.8028 34.0776C40.4369 33.8229 39.813 33.4601 38.838 33.0962C38.9132 32.2223 39.1668 30.5756 40.0194 29.0824C40.2404 29.0477 40.466 29.0293 40.6912 29.0293C43.0341 29.0293 44.9405 30.9356 44.9405 33.2785C44.9405 33.6392 44.8947 33.9953 44.806 34.3404C43.5171 33.9226 42.1368 33.8286 40.8028 34.0776ZM45.3713 22.4307V24.1104C43.1221 24.2079 41.2664 24.959 39.8457 26.3486C37.8503 28.3011 37.2485 31.0132 37.0679 32.5543C36.1993 32.3375 35.168 32.1421 33.9475 31.9964C33.6716 31.7407 33.3967 31.4995 33.1229 31.2718C33.1243 31.2498 33.1262 31.2282 33.1262 31.2059C33.1262 28.7672 33.9142 26.8037 35.468 25.3706C38.4231 22.6449 43.4051 22.4115 45.3713 22.4307ZM35.3332 17.7615C35.7883 17.7615 36.2365 17.8285 36.6728 17.9558L36.6742 17.9562C38.1213 18.379 39.4321 19.4774 40.3951 21.0911C38.2844 21.5461 36.0007 22.4112 34.2422 24.0306C32.5679 25.5723 31.6046 27.5754 31.3684 29.9967C30.6254 29.5357 29.8901 29.1814 29.1652 28.9356V23.6855C29.1808 23.649 29.1953 23.6117 29.2067 23.5727C30.2079 20.097 32.67 17.7615 35.3332 17.7615ZM24.3896 20.7212C24.3896 20.5846 24.5006 20.4736 24.6372 20.4736H27.1018C27.2383 20.4736 27.3493 20.5846 27.3493 20.7212V28.5448C27.045 28.5182 26.7432 28.5111 26.4431 28.5246C25.7327 28.5561 25.0476 28.7015 24.3896 28.9576V20.7212ZM22.6206 32.4514C23.7941 31.1125 25.1075 30.4018 26.524 30.3387C28.3303 30.2578 30.4086 31.2395 32.5522 33.1817C31.9979 34.2695 30.4555 36.7315 27.3071 38.1648C23.8324 39.7462 22.3492 41.8919 21.7165 43.4131C21.7058 43.439 21.696 43.4642 21.6853 43.4897C20.5376 40.9471 19.9205 35.531 22.6206 32.4514Z" fill="#000D44"/>
<path d="M30.4005 50.4963C30.0147 50.176 29.4423 50.2296 29.122 50.6154C28.802 51.0013 28.8553 51.5738 29.2412 51.8937C31.6973 53.9316 34.6389 55.3963 37.7474 56.1305C37.8177 56.1472 37.8879 56.155 37.9571 56.155C38.3685 56.155 38.7412 55.8734 38.8399 55.4556C38.9551 54.9676 38.6529 54.4785 38.1649 54.3632C35.3272 53.6932 32.6424 52.3558 30.4005 50.4963Z" fill="#000D44"/>
<path d="M26.8638 48.1785C26.4847 48.5069 26.4417 49.0776 26.7698 49.4563C26.9496 49.6719 27.2078 49.783 27.4681 49.783C27.6731 49.783 27.8792 49.7142 28.0488 49.5726C28.4339 49.2517 28.486 48.6793 28.1651 48.2941L28.1466 48.2724C27.8182 47.8934 27.2426 47.85 26.8638 48.1785Z" fill="#000D44"/>
</g>
</g>
</g>
</g>
</g>
<defs>
<clipPath id="clip0_1_404">
<rect width="45.302" height="45.302" fill="white" transform="translate(13.1205 14.2034)"/>
</clipPath>
<clipPath id="clip1_1_404">
<rect width="46.4869" height="46.4869" fill="white" transform="translate(12.2579 13.9819)"/>
</clipPath>
<clipPath id="clip2_1_404">
<rect width="46.4869" height="46.4869" fill="white" transform="translate(12.2579 13.9819)"/>
</clipPath>
<clipPath id="clip3_1_404">
<rect width="46.4869" height="46.4869" fill="white" transform="translate(12.2579 13.9819)"/>
</clipPath>
</defs>
</svg>
