<svg width="73" height="74" viewBox="0 0 73 74" fill="none" xmlns="http://www.w3.org/2000/svg">
<rect x="0.228165" y="0.871704" width="72.4833" height="72.4833" rx="36.2416" fill="#E6E9EE"/>
<g clip-path="url(#clip0_1_382)">
<g clip-path="url(#clip1_1_382)">
<g clip-path="url(#clip2_1_382)">
<g clip-path="url(#clip3_1_382)">
<mask id="mask0_1_382" style="mask-type:luminance" maskUnits="userSpaceOnUse" x="13" y="14" width="47" height="47">
<path d="M59.6074 14.2031H13.1205V60.6901H59.6074V14.2031Z" fill="white"/>
</mask>
<g mask="url(#mask0_1_382)">
<path fill-rule="evenodd" clip-rule="evenodd" d="M26.9004 50.2051H25.566V51.5395C25.566 52.9011 23.4963 52.9011 23.4963 51.5395V50.2051H22.1619C20.773 50.2051 20.773 48.1353 22.1619 48.1353H23.4963V46.7737C23.4963 45.412 25.566 45.412 25.566 46.7737V48.1353H26.9004C28.2621 48.1353 28.2621 50.2051 26.9004 50.2051ZM53.8885 60.6898H37.3579C36.786 60.6898 36.3504 60.2268 36.3231 59.6822C35.5878 43.2606 29.7327 38.7944 28.9973 38.3042C16.9876 34.6277 18.7305 19.6495 18.7577 19.4861C18.8122 19.0776 19.1118 18.7236 19.5202 18.6146L35.8601 14.2301C36.0779 14.1757 36.3231 14.2029 36.541 14.2846C54.4876 22.4545 54.9233 35.1996 54.9233 35.7443V59.6277C54.9233 60.1996 54.4604 60.6898 53.8885 60.6898ZM38.3383 58.5928H44.0028L41.4701 42.2802C38.2294 42.7977 35.7784 39.3118 37.4396 36.4251C38.42 34.7094 40.517 34.0013 42.3143 34.7367C44.3024 32.204 48.3873 33.021 49.2316 36.1527C49.7762 38.1953 48.6052 40.3195 46.5899 40.9458L49.3405 58.5928H52.8536V35.7716C52.8263 35.3085 52.3906 23.9251 36.0236 16.3543L32.4015 17.3075L37.0583 24.2791C39.7816 22.4273 43.4581 24.5787 43.1586 27.8739C42.9952 29.8619 41.4157 31.3598 39.4548 31.4687C38.7196 34.6277 34.6891 35.5809 32.6194 33.1026C31.2577 31.4687 31.4212 29.0449 32.9734 27.656L27.0366 18.7508L20.7457 20.4393C20.5551 23.2443 20.5006 33.6201 29.7327 36.3434C30.2501 36.4795 37.3034 40.6735 38.3383 58.5928ZM46.127 58.5928H47.2435L44.384 40.2377C44.2752 39.6114 44.7653 39.0395 45.4189 39.0395C46.6172 39.0395 47.5159 37.8685 47.2163 36.6975C46.7534 34.9545 44.3024 34.8456 43.676 36.534C43.431 37.1876 42.5867 37.4055 42.042 36.9698C40.6532 35.8259 38.5834 37.1332 39.0736 38.8761C39.3732 40.0744 40.7348 40.619 41.7969 39.9927C42.4233 39.6386 43.2403 40.0199 43.3492 40.7279L46.127 58.5928ZM30.2773 17.8794L29.1608 18.1789L35.2882 27.3565C35.6423 27.8739 35.4244 28.6092 34.8525 28.8815C33.1368 29.6713 33.5726 32.2584 35.4516 32.4218C36.5954 32.5035 37.5758 31.5504 37.4941 30.4338C37.4396 29.7257 38.0932 29.1539 38.7741 29.3445C40.517 29.7802 41.8242 27.7378 40.6803 26.3488C39.8906 25.3957 38.42 25.4774 37.712 26.485C37.3034 27.0842 36.4047 27.0569 35.9963 26.4578L30.2773 17.8794ZM24.5311 55.8968C20.8002 55.8968 17.7773 52.8739 17.7773 49.1702C17.7773 45.4392 20.8002 42.4164 24.5311 42.4164C28.2349 42.4164 31.2577 45.4392 31.2577 49.1702C31.2577 52.8739 28.2349 55.8968 24.5311 55.8968ZM24.5311 44.5133C21.9712 44.5133 19.8743 46.583 19.8743 49.1702C19.8743 51.7301 21.9712 53.8271 24.5311 53.8271C27.0911 53.8271 29.188 51.7301 29.188 49.1702C29.188 46.583 27.0911 44.5133 24.5311 44.5133Z" fill="#000D44"/>
<path fill-rule="evenodd" clip-rule="evenodd" d="M34.8526 28.8813C33.1369 29.671 33.5726 32.2582 35.4517 32.4215C36.5955 32.5032 37.5759 31.5501 37.4942 30.4335C37.4397 29.7255 38.0933 29.1536 38.7741 29.3442C40.517 29.7799 41.8242 27.7374 40.6805 26.3486C39.8907 25.3954 38.4201 25.4771 37.712 26.4847C37.3036 27.0838 36.4048 27.0566 35.9964 26.4574L30.2773 17.879L29.1608 18.1786L35.2883 27.3561C35.6423 27.8736 35.4245 28.6088 34.8526 28.8813Z" fill="white"/>
<path fill-rule="evenodd" clip-rule="evenodd" d="M42.0421 36.9697C40.6533 35.8259 38.5835 37.1331 39.0737 38.876C39.3733 40.0743 40.7349 40.6189 41.797 39.9926C42.4234 39.6386 43.2403 40.0198 43.3493 40.7279L46.1271 58.5928H47.2436L44.3842 40.2377C44.2752 39.6114 44.7654 39.0395 45.419 39.0395C46.6172 39.0395 47.5159 37.8684 47.2164 36.6974C46.7535 34.9545 44.3025 34.8455 43.6761 36.534C43.431 37.1876 42.5867 37.4055 42.0421 36.9697Z" fill="white"/>
<path fill-rule="evenodd" clip-rule="evenodd" d="M37.4397 36.4249C38.4201 34.7092 40.517 34.0012 42.3144 34.7365C44.3025 32.2038 48.3875 33.0208 49.2317 36.1526C49.7763 38.1951 48.6053 40.3193 46.5901 40.9457L49.3406 58.5926H52.8537V35.7714C52.8264 35.3084 52.3907 23.9249 36.0236 16.3541L32.4016 17.3073L37.0585 24.279C39.7818 22.4271 43.4583 24.5785 43.1587 27.8737C42.9953 29.8618 41.4157 31.3596 39.455 31.4686C38.7197 34.6275 34.6892 35.5807 32.6195 33.1025C31.2578 31.4685 31.4212 29.0447 32.9735 27.6559L27.0367 18.7506L20.7458 20.4391C20.5552 23.2441 20.5007 33.62 29.7327 36.3433C30.2502 36.4794 37.3036 40.6733 38.3384 58.5926H44.0029L41.4702 42.28C38.2295 42.7975 35.7785 39.3116 37.4397 36.4249Z" fill="#1AB3FA"/>
<path fill-rule="evenodd" clip-rule="evenodd" d="M29.1881 49.1702C29.1881 46.583 27.0911 44.5133 24.5312 44.5133C21.9713 44.5133 19.8743 46.583 19.8743 49.1702C19.8743 51.73 21.9713 53.827 24.5312 53.827C27.0911 53.827 29.1881 51.73 29.1881 49.1702ZM26.9004 48.1353C28.2621 48.1353 28.2621 50.205 26.9004 50.205H25.5661V51.5394C25.5661 52.901 23.4963 52.901 23.4963 51.5394V50.205H22.1619C20.773 50.205 20.773 48.1353 22.1619 48.1353H23.4963V46.7736C23.4963 45.412 25.5661 45.412 25.5661 46.7736V48.1353H26.9004Z" fill="#1F5FFF"/>
</g>
</g>
</g>
</g>
</g>
<defs>
<clipPath id="clip0_1_382">
<rect width="45.302" height="45.302" fill="white" transform="translate(13.8188 15.3594)"/>
</clipPath>
<clipPath id="clip1_1_382">
<rect width="46.4869" height="46.4869" fill="white" transform="translate(13.1205 14.2031)"/>
</clipPath>
<clipPath id="clip2_1_382">
<rect width="46.4869" height="46.4869" fill="white" transform="translate(13.1205 14.2031)"/>
</clipPath>
<clipPath id="clip3_1_382">
<rect width="46.4869" height="46.4869" fill="white" transform="translate(13.1205 14.2031)"/>
</clipPath>
</defs>
</svg>
