<svg width="73" height="74" viewBox="0 0 73 74" fill="none" xmlns="http://www.w3.org/2000/svg">
<rect x="0.288452" y="0.87146" width="72.4833" height="72.4833" rx="36.2416" fill="#E6E9EE"/>
<g clip-path="url(#clip0_1_355)">
<g clip-path="url(#clip1_1_355)">
<g clip-path="url(#clip2_1_355)">
<g clip-path="url(#clip3_1_355)">
<mask id="mask0_1_355" style="mask-type:luminance" maskUnits="userSpaceOnUse" x="13" y="15" width="47" height="47">
<path d="M59.6075 15.2035H13.1206V61.6904H59.6075V15.2035Z" fill="white"/>
</mask>
<g mask="url(#mask0_1_355)">
<path d="M58.8327 33.7981V43.0955C55.6072 43.2942 52.6706 45.0215 50.9299 47.7442C47.7726 53.2135 42.0553 56.7066 35.7478 57.0197C29.4404 57.3329 23.4052 54.4234 19.7216 49.2937C16.2196 47.7442 13.8953 44.4358 13.8953 38.4468C13.8953 32.4577 16.2196 29.1494 19.7061 27.5998C23.3885 22.4631 29.428 19.5485 35.7405 19.8618C42.053 20.1751 47.7742 23.6733 50.9299 29.1494C52.6706 31.872 55.6072 33.5993 58.8327 33.7981Z" fill="#1AB3FA"/>
<path d="M50.9299 29.1494C47.6061 23.3925 41.4619 19.8478 34.8145 19.8521C34.4115 19.8521 34.0396 19.8521 33.6212 19.8521C39.8614 20.2351 45.4913 23.7284 48.6055 29.1494C50.3463 31.8721 53.2829 33.5994 56.5083 33.7981V43.0955C53.2829 43.2943 50.3463 45.0216 48.6055 47.7442C45.4913 53.1653 39.8614 56.6585 33.6212 57.0416C34.0164 57.0416 34.3961 57.0416 34.8145 57.0416C41.4619 57.0458 47.6061 53.5011 50.9299 47.7442C52.6706 45.0216 55.6072 43.2943 58.8327 43.0955V33.7981C55.6072 33.5994 52.6706 31.8721 50.9299 29.1494Z" fill="#1F5FFF"/>
<path d="M27.8413 38.4467C27.8413 42.7235 25.9354 46.1945 23.5801 46.1945C23.4512 46.2071 23.3215 46.2071 23.1926 46.1945C21.6431 45.9544 20.3802 44.2653 19.7449 41.8868C19.9486 42.1614 20.2635 42.3317 20.6049 42.3516C21.6431 42.3207 22.4179 40.5851 22.4179 38.4467C22.4179 36.3083 21.6431 34.5728 20.6204 34.5728C20.279 34.5928 19.9641 34.763 19.7604 35.0377C20.3957 32.6591 21.6818 30.9701 23.1926 30.699C23.3164 30.6874 23.4409 30.6874 23.5645 30.699C25.9354 30.699 27.8413 34.1699 27.8413 38.4467Z" fill="#1AB3FA"/>
<path d="M23.58 30.6989C23.4512 30.6865 23.3215 30.6865 23.1926 30.6989C22.9221 30.7491 22.6607 30.8406 22.4179 30.9701C24.2076 31.8999 25.517 34.844 25.517 38.4157C25.517 41.9875 24.2153 44.9316 22.4179 45.8614C22.657 46.0125 22.9184 46.125 23.1926 46.1946C23.3164 46.206 23.4409 46.206 23.5645 46.1946C25.8889 46.1946 27.8259 42.7235 27.8259 38.4467C27.8259 34.1699 25.9353 30.6989 23.58 30.6989Z" fill="#1F5FFF"/>
<path d="M22.4179 38.447C22.4179 40.5854 21.6431 42.3209 20.6204 42.3209C20.279 42.301 19.964 42.1307 19.7604 41.856C19.1716 39.6215 19.1716 37.2725 19.7604 35.038C19.964 34.7633 20.279 34.593 20.6204 34.5731C21.6431 34.5731 22.4179 36.3086 22.4179 38.447Z" fill="#1F5FFF"/>
<path d="M58.8328 36.8974V39.9965H54.4088C51.4312 39.9842 48.7143 41.6927 47.4357 44.3818C47.1734 44.9454 46.8704 45.4891 46.5292 46.0089C45.5763 44.9474 44.8867 41.9955 44.8867 38.5245C44.8867 35.0534 45.5995 31.993 46.5834 30.9703C46.9024 31.4669 47.1871 31.9846 47.4357 32.5198C48.7143 35.2089 51.4312 36.9175 54.4088 36.9051L58.8328 36.8974Z" fill="#1F5FFF"/>
<path d="M56.5083 36.8975H58.8327V39.9966H56.5083V36.8975Z" fill="#1AB3FA"/>
<path d="M44.8866 38.5245C44.8866 41.9955 45.5761 44.9474 46.529 46.0089C43.984 49.9655 39.6155 52.3723 34.9111 52.4099C30.2067 52.4473 25.8005 50.1104 23.1926 46.1948C23.3163 46.2063 23.4408 46.2063 23.5645 46.1948C25.8888 46.1948 27.8259 42.7238 27.8259 38.447C27.8259 34.1702 25.9199 30.6992 23.5645 30.6992C23.4408 30.6876 23.3163 30.6876 23.1926 30.6992C25.8065 26.7722 30.2283 24.4329 34.9453 24.4813C39.6624 24.5298 44.0352 26.9596 46.5678 30.9393C45.5993 31.9931 44.8866 34.9915 44.8866 38.5245Z" fill="white"/>
<path d="M45.6613 38.6097C45.6613 38.6097 45.6613 38.6097 45.6613 38.5554C45.6663 38.5194 45.6663 38.483 45.6613 38.447C45.7418 38.0278 45.4681 37.6225 45.0493 37.5405C43.5539 37.2305 41.7874 36.4867 41.7874 34.573C41.8024 33.6678 41.6876 32.765 41.4465 31.8923C41.4475 31.8743 41.4475 31.8562 41.4465 31.838C40.7027 29.4672 38.82 28.3748 35.5892 28.3748C35.1612 28.3748 34.8143 28.7216 34.8143 29.1496C34.8143 29.5775 35.1612 29.9244 35.5892 29.9244C37.5338 29.9244 38.7657 30.3195 39.463 31.2802C38.1496 31.298 36.9097 31.8897 36.0695 32.8995C35.9928 32.9903 35.9099 33.0757 35.8216 33.1552C35.4657 33.5562 34.9553 33.7856 34.4192 33.7856C33.8831 33.7856 33.3727 33.5562 33.0169 33.1552C32.8226 32.9392 32.5237 32.85 32.2429 32.9242C31.962 32.9984 31.7462 33.2236 31.684 33.5074C31.6218 33.7912 31.7236 34.086 31.9477 34.2709C32.5858 34.9399 33.4639 35.3274 34.3882 35.3478C35.3314 35.3203 36.2287 34.9353 36.8985 34.2709C36.9992 34.1779 37.1 34.0694 37.2084 33.9532C37.907 33.1005 38.9985 32.6721 40.0906 32.8221C40.1969 33.3995 40.2462 33.986 40.2379 34.573C40.2379 36.4713 41.3845 37.9124 43.4144 38.6562C42.5085 39.1099 41.6942 39.7271 41.0126 40.4769C39.463 39.5316 37.3092 40.2212 36.4181 40.5854L34.4424 39.338C34.2072 39.1912 33.9116 39.1812 33.6669 39.3116C33.4221 39.4421 33.2656 39.6931 33.2562 39.9702C33.2468 40.2473 33.3859 40.5084 33.6212 40.6551L35.1708 41.6158L34.2643 42.5611C34.1176 42.7066 34.0351 42.9046 34.0351 43.1111C34.0351 43.3177 34.1176 43.5157 34.2643 43.6612C34.413 43.8006 34.6106 43.8758 34.8143 43.8704C35.028 43.8717 35.2326 43.7849 35.38 43.6303L36.8211 42.0807C37.5261 41.7553 39.1454 41.2362 40.1294 41.7553C39.8003 42.3783 39.5753 43.0509 39.463 43.7465C39.2809 45.075 38.543 46.2635 37.4331 47.0161C36.4564 47.498 35.3108 47.498 34.334 47.0161C33.936 46.8578 33.4851 47.052 33.3268 47.4499C33.1684 47.8479 33.3627 48.2989 33.7607 48.4571C34.4726 48.7558 35.2356 48.9137 36.0076 48.9221C36.7775 48.9264 37.5355 48.7317 38.2079 48.3564C39.7301 47.3769 40.7532 45.7859 41.0126 43.9944C41.4387 41.4221 43.5074 40.1824 45.1577 39.5936C45.3561 39.5315 45.5211 39.3923 45.6159 39.2072C45.7106 39.0222 45.727 38.8069 45.6613 38.6097Z" fill="#1F5FFF"/>
<path d="M58.8328 33.0234C55.8919 32.8226 53.2156 31.2536 51.604 28.7854C48.3384 23.1198 42.4346 19.4845 35.9054 19.1189C29.3763 18.7533 23.1036 21.7068 19.2259 26.9724C15.1737 28.8473 13.1206 32.7057 13.1206 38.4469C13.1206 44.188 15.1737 48.0464 19.2259 49.9214C23.1036 55.187 29.3763 58.1405 35.9054 57.7749C42.4346 57.4093 48.3384 53.774 51.604 48.1084C53.2156 45.6402 55.8919 44.0712 58.8328 43.8704C59.2606 43.8704 59.6075 43.5235 59.6075 43.0955V33.7982C59.6075 33.3703 59.2606 33.0234 58.8328 33.0234ZM50.2559 47.3337C47.2417 52.5825 41.7694 55.9425 35.7248 56.2557C29.6802 56.5689 23.8897 53.7924 20.3493 48.8832C20.2568 48.7544 20.127 48.657 19.9774 48.6042C16.4521 46.9695 14.6701 43.5759 14.6701 38.4469C14.6701 33.3179 16.4444 29.9243 19.9464 28.3747C20.1095 28.3237 20.2511 28.2202 20.3493 28.0803C23.8897 23.1711 29.6802 20.3947 35.7248 20.7078C41.7694 21.021 47.2417 24.381 50.2559 29.6299C52.0048 32.343 54.8577 34.1505 58.0579 34.573V36.1225H54.4087C51.7349 36.1304 49.2952 34.5985 48.1408 32.1866C45.6977 27.0363 40.5149 23.7457 34.8144 23.726C29.996 23.7202 25.4827 26.084 22.7434 30.0482C20.3338 30.6991 18.544 34.1546 18.544 38.4469C18.544 42.7392 20.3338 46.1947 22.7434 46.8456C25.7468 51.1585 30.8217 53.5431 36.0589 53.1021C41.296 52.6612 45.9008 49.4616 48.1408 44.7072C49.2952 42.2953 51.7349 40.7634 54.4087 40.7712H58.0579V42.3208C54.8453 42.7594 51.9902 44.5939 50.2559 47.3337ZM58.0579 39.2217H54.4087C51.1375 39.2252 48.1569 41.1009 46.7383 44.0485C46.6764 44.1803 46.5989 44.312 46.537 44.436C45.9057 42.5308 45.6094 40.5307 45.6614 38.5244C45.6037 36.4823 45.9106 34.4463 46.5679 32.5121C46.6221 32.6206 46.6841 32.729 46.7383 32.8452C48.1569 35.7929 51.1375 37.6686 54.4087 37.6721H58.0579V39.2217ZM20.6205 35.3478C20.8684 35.3478 21.6432 36.417 21.6432 38.4469C21.6432 40.4768 20.8684 41.546 20.6205 41.546C20.5505 41.5258 20.4866 41.4885 20.4345 41.4375C19.9799 39.4697 19.9799 37.4241 20.4345 35.4563C20.4866 35.4053 20.5505 35.368 20.6205 35.3478ZM23.1927 38.4469C23.1927 35.983 22.2862 34.1391 20.9846 33.8446C21.6432 32.3493 22.6427 31.4738 23.5801 31.4738C25.2614 31.4738 27.0667 34.2786 27.0667 38.4469C27.0667 42.6152 25.2614 45.4199 23.5801 45.4199C22.6427 45.4199 21.6664 44.5445 20.9846 43.0491C22.2862 42.7547 23.1927 40.9107 23.1927 38.4469ZM28.6163 38.4469C28.6163 34.2786 26.9349 30.9083 24.6338 30.1103C27.2518 26.9068 31.2226 25.1196 35.3563 25.2841C39.4901 25.4486 43.3064 27.5458 45.6614 30.947C44.724 32.4036 44.1118 35.2548 44.1118 38.5244C44.1118 41.7939 44.6775 44.5445 45.584 46.0165C43.1101 49.5143 39.0986 51.6009 34.8144 51.6182C30.8663 51.621 27.1268 49.8452 24.6338 46.7835C26.9349 45.9855 28.6163 42.6074 28.6163 38.4469Z" fill="#000D44"/>
</g>
</g>
</g>
</g>
</g>
<defs>
<clipPath id="clip0_1_355">
<rect width="45.302" height="45.302" fill="white" transform="translate(13.8792 15.3593)"/>
</clipPath>
<clipPath id="clip1_1_355">
<rect width="46.4869" height="46.4869" fill="white" transform="translate(13.1206 15.2035)"/>
</clipPath>
<clipPath id="clip2_1_355">
<rect width="46.4869" height="46.4869" fill="white" transform="translate(13.1206 15.2035)"/>
</clipPath>
<clipPath id="clip3_1_355">
<rect width="46.4869" height="46.4869" fill="white" transform="translate(13.1206 15.2035)"/>
</clipPath>
</defs>
</svg>
