<svg width="73" height="73" viewBox="0 0 73 73" fill="none" xmlns="http://www.w3.org/2000/svg">
<rect x="0.288452" y="0.384399" width="72.4833" height="72.4833" rx="36.2416" fill="#E6E9EE"/>
<g clip-path="url(#clip0_1_246)">
<g clip-path="url(#clip1_1_246)">
<g clip-path="url(#clip2_1_246)">
<mask id="mask0_1_246" style="mask-type:luminance" maskUnits="userSpaceOnUse" x="13" y="14" width="47" height="47">
<path d="M59.1814 14.8723H13.8793V60.1744H59.1814V14.8723Z" fill="white"/>
</mask>
<g mask="url(#mask0_1_246)">
<path d="M44.0578 18.891C42.4568 18.891 40.8698 19.3089 39.5319 20.1887C38.8122 20.6614 37.8119 21.083 36.5303 21.083C35.2487 21.083 34.2483 20.6614 33.5287 20.1887C32.1915 19.3089 30.6038 18.891 29.0028 18.891C24.2827 18.891 20.4554 22.7183 20.4554 27.4385V29.3653C20.4554 34.4529 21.9182 39.4333 24.6692 43.7129C26.2336 46.146 27.3895 48.8189 28.091 51.6254L28.8867 54.8075C29.0846 55.5995 29.7963 56.1556 30.6132 56.1556C31.4944 56.1556 32.2426 55.5112 32.3735 54.6394L34.0131 43.71C34.2001 42.4642 35.2706 41.542 36.5303 41.542C37.79 41.542 38.8604 42.4642 39.0475 43.71L40.6871 54.6394C40.8179 55.5112 41.5662 56.1556 42.4473 56.1556C43.2643 56.1556 43.9759 55.5995 44.1739 54.8075L44.9696 51.6254C45.6711 48.8189 46.827 46.146 48.3914 43.7129C50.5243 40.3956 51.8825 36.6567 52.3853 32.7739L52.5153 26.1977C51.9147 22.0651 48.357 18.891 44.0578 18.891Z" fill="white"/>
<path d="M36.8956 39.35C30.5102 39.35 24.7985 37.4823 20.9785 34.545C21.6252 37.7899 22.863 40.9041 24.6692 43.7128C26.2336 46.146 27.3895 48.8188 28.091 51.6254L28.8867 54.8075C29.0847 55.5995 29.7963 56.1556 30.6133 56.1556C31.4944 56.1556 32.2426 55.5111 32.3735 54.6394L34.0131 43.7099C34.2001 42.4641 35.2706 41.542 36.5303 41.542C37.79 41.542 38.8605 42.4641 39.0475 43.7099L40.6871 54.6394C40.818 55.5111 41.5662 56.1556 42.4473 56.1556C43.2643 56.1556 43.9759 55.5995 44.1739 54.8075L44.9696 51.6254C45.6711 48.8188 46.827 46.146 48.3914 43.7128C50.0822 41.0824 51.2776 38.1852 51.9549 35.1631C48.1627 37.741 42.8199 39.35 36.8956 39.35Z" fill="#1AB3FA"/>
<path d="M47.4906 29.8513C50.7187 29.8513 53.336 27.234 53.336 24.0059C53.336 27.234 55.9532 29.8513 59.1814 29.8513C55.9532 29.8513 53.336 32.4686 53.336 35.6967C53.336 32.4686 50.7187 29.8513 47.4906 29.8513Z" fill="#FCD770"/>
<path d="M13.8794 48.849C17.1076 48.849 19.7248 46.2317 19.7248 43.0035C19.7248 46.2317 22.3421 48.849 25.5703 48.849C22.3421 48.849 19.7248 51.4662 19.7248 54.6944C19.7248 51.4662 17.1076 48.849 13.8794 48.849Z" fill="#FCD770"/>
<path d="M24.1089 29.3654V29.1206H22.6475V29.3654C22.6475 29.7841 22.6585 30.2028 22.6797 30.6193L24.1396 30.5447C24.1198 30.1523 24.1089 29.76 24.1089 29.3654Z" fill="#000D44"/>
<path d="M22.8038 32.1257C23.2218 35.8062 24.5048 39.4032 26.5135 42.5269L27.7425 41.7363C25.8544 38.7997 24.6495 35.4189 24.2557 31.9598L22.8038 32.1257Z" fill="#000D44"/>
<path d="M36.5305 23.2754C34.9946 23.2754 33.5143 22.8239 32.2487 21.9697L31.4311 23.1812C32.9392 24.1991 34.7023 24.7368 36.5305 24.7368C38.3586 24.7368 40.1218 24.1991 41.6306 23.1805L40.813 21.969C39.5474 22.8239 38.0664 23.2754 36.5305 23.2754Z" fill="#000D44"/>
<path d="M20.4555 43.0033H18.9942C18.9942 45.823 16.6991 48.1181 13.8794 48.1181V49.5794C16.6991 49.5794 18.9942 51.8745 18.9942 54.6942H20.4555C20.4555 51.8745 22.7506 49.5794 25.5703 49.5794V48.1181C22.7506 48.1181 20.4555 45.823 20.4555 43.0033ZM19.7248 51.6948C19.0965 50.4745 18.0991 49.4771 16.8789 48.8488C18.0991 48.2204 19.0965 47.223 19.7248 46.0027C20.3532 47.223 21.3506 48.2204 22.5708 48.8488C21.3506 49.4771 20.3532 50.4745 19.7248 51.6948Z" fill="#000D44"/>
<path d="M54.0667 24.0058H52.6675C51.2836 20.5636 47.8961 18.1604 44.0579 18.1604C42.2458 18.1604 40.5419 18.6507 39.1302 19.5772C37.5672 20.606 35.4943 20.606 33.9307 19.5772C32.5198 18.6507 30.8158 18.1604 29.003 18.1604C23.8867 18.1604 19.7248 22.3223 19.7248 27.4386V29.3654C19.7248 34.6043 21.2227 39.7015 24.0555 44.1082C25.5798 46.4793 26.6992 49.0681 27.3831 51.8023L28.178 54.9837C28.4572 56.1045 29.4589 56.8864 30.6134 56.8864C31.8665 56.8864 32.9114 55.9869 33.0963 54.7477L34.7351 43.8182C34.8703 42.9231 35.6251 42.2727 36.5304 42.2727C37.4358 42.2727 38.1905 42.9231 38.3249 43.8182L39.9639 54.7477C40.1494 55.9869 41.1944 56.8864 42.4474 56.8864C43.6019 56.8864 44.6037 56.1045 44.8828 54.9837L45.6786 51.8023C46.3624 49.0673 47.4826 46.4786 49.0067 44.1082C50.672 41.5173 51.89 38.6238 52.6024 35.6207C52.6017 35.6462 52.6053 35.6711 52.6053 35.6967H54.0667C54.0667 32.877 56.3618 30.5819 59.1815 30.5819V29.1206C56.3618 29.1206 54.0667 26.8255 54.0667 24.0058ZM47.777 43.3177C46.1659 45.8239 44.9836 48.5595 44.261 51.4487L43.4646 54.63C43.3484 55.0984 42.9297 55.425 42.4474 55.425C41.9236 55.425 41.4874 55.0486 41.4099 54.5307L39.771 43.6012C39.5284 41.9842 38.1649 40.8114 36.5304 40.8114C34.8959 40.8114 33.5324 41.9842 33.2899 43.6012L31.651 54.5307C31.5742 55.0486 31.1373 55.425 30.6134 55.425C30.1312 55.425 29.7125 55.0984 29.5948 54.63L28.7991 51.4487C28.0772 48.5588 26.8942 45.8232 25.2831 43.3177C22.603 39.1476 21.1862 34.323 21.1862 29.3654V27.4386C21.1862 23.1283 24.6928 19.6218 29.003 19.6218C30.5294 19.6218 31.9557 20.0287 33.1276 20.7989C34.1514 21.4718 35.2971 21.8138 36.5304 21.8138C37.7638 21.8138 38.9095 21.4718 39.9324 20.7989C41.1052 20.0287 42.5315 19.6218 44.0579 19.6218C47.9129 19.6218 51.239 22.494 51.787 26.2446L51.8177 26.7203C50.9117 28.159 49.313 29.1206 47.4906 29.1206V30.5819C49.2062 30.5819 50.7238 31.4339 51.6518 32.7338C51.1586 36.4807 49.82 40.1392 47.777 43.3177ZM53.3361 32.6973C52.7076 31.477 51.7103 30.4796 50.49 29.8513C51.7103 29.2229 52.7076 28.2255 53.3361 27.0052C53.9644 28.2255 54.9618 29.2229 56.182 29.8513C54.9618 30.4796 53.9644 31.477 53.3361 32.6973Z" fill="#000D44"/>
</g>
</g>
</g>
</g>
<defs>
<clipPath id="clip0_1_246">
<rect width="45.302" height="45.302" fill="white" transform="translate(13.8792 14.8723)"/>
</clipPath>
<clipPath id="clip1_1_246">
<rect width="45.302" height="45.302" fill="white" transform="translate(13.8793 14.8723)"/>
</clipPath>
<clipPath id="clip2_1_246">
<rect width="45.302" height="45.302" fill="white" transform="translate(13.8793 14.8723)"/>
</clipPath>
</defs>
</svg>
